<?xml version="1.0" encoding="utf-8"?>
<!-- Generator: Adobe Illustrator 24.2.0, SVG Export Plug-In . SVG Version: 6.00 Build 0)  -->
<svg version="1.1" id="Layer_1" xmlns="http://www.w3.org/2000/svg" xmlns:xlink="http://www.w3.org/1999/xlink" x="0px" y="0px"
	 viewBox="0 0 50.4 50.4" style="enable-background:new 0 0 50.4 50.4;" xml:space="preserve">
<style type="text/css">
	.st0{fill:#128482;}
</style>
<g>
	<path class="st0" d="M50.4,7.6c0,11.7,0,23.4,0,35.2c-0.1,0.2-0.2,0.3-0.2,0.5c-0.7,3.8-3,6.1-6.8,6.9c-0.1,0-0.2,0.1-0.4,0.2
		c-11.9,0-23.7,0-35.6,0c-0.2-0.1-0.4-0.2-0.6-0.2c-3.3-0.7-5.4-2.8-6.4-6c-0.1-0.5-0.2-0.9-0.4-1.4C0,31.1,0,19.3,0,7.6
		C0.1,7.4,0.2,7.2,0.2,7c0.6-3,2.3-5.1,5.1-6.3C6,0.4,6.8,0.2,7.6,0c11.7,0,23.4,0,35.2,0c0.2,0.1,0.4,0.2,0.6,0.2
		c3.4,0.6,5.6,2.7,6.6,6C50.2,6.7,50.3,7.2,50.4,7.6z M13.7,40.4c5,0,10,0.1,14.9,0c1.6,0,3.3-0.4,4.8-1c3.4-1.3,4.9-3.9,4.8-7.7
		c-0.1-3.6-1.8-5.8-5.3-7.1c0.1-0.1,0.2-0.2,0.4-0.3c2.9-1.5,3.9-4.1,3.6-7.2c-0.3-2.9-2.1-4.9-5.3-5.7c-0.8-0.2-1.6-0.4-2.4-0.4
		c-4.9,0-9.8,0-14.7,0c-0.2,0-0.4,0.1-0.7,0.1C13.7,20.8,13.7,30.5,13.7,40.4z"/>
	<path class="st0" d="M18.9,36c0-0.3,0-0.6,0-0.9c0-2.6,0-5.2,0-7.9c0.3,0,0.5-0.1,0.7-0.1c2.9,0,5.9,0,8.8,0c2.8,0.1,4.4,1.7,4.4,4.4
		c0,2.8-1.7,4.5-4.5,4.5c-2.9,0-5.7,0-8.6,0C19.5,36,19.2,36,18.9,36z"/>
	<path class="st0" d="M18.9,23.2c0-2.7,0-5.3,0-8c2.1,0,4.1,0,6.2,0c0.9,0,1.9,0,2.8,0c2.3,0.1,3.5,1.3,3.6,3.7c0.1,2.1-1.1,3.9-3.2,4.1
		c-2.4,0.2-4.8,0.1-7.3,0.2C20.4,23.2,19.7,23.2,18.9,23.2z"/>
</g>
</svg>
