<?xml version="1.0" encoding="utf-8"?>
<!-- Generator: Adobe Illustrator 24.2.0, SVG Export Plug-In . SVG Version: 6.00 Build 0)  -->
<svg version="1.1" id="Layer_1" xmlns="http://www.w3.org/2000/svg" xmlns:xlink="http://www.w3.org/1999/xlink" x="0px" y="0px"
	 viewBox="0 0 151.2 151.2" style="enable-background:new 0 0 151.2 151.2;" xml:space="preserve">
<style type="text/css">
	.st0{fill:#128482;}
</style>
<g>
	<path class="st0" d="M151.2,75.4c0,11-0.1,21.9,0,32.9c0.1,4.2-1.9,7-6,9.1c-20.9,10.5-41.8,21.1-62.5,31.8
		c-5,2.6-9.4,2.7-14.5,0.1C47.1,138.4,25.8,127.7,4.5,117c-3.2-1.6-4.5-3.8-4.5-6.8c0-23-0.1-45.9,0.2-68.9c0-2.2,2.2-5.3,4.4-6.4
		C26.3,23.6,48.3,12.5,70.1,1.4c3.7-1.9,7.1-1.9,10.9,0c21.7,11,43.4,21.9,65.1,32.8c3.5,1.7,5.1,4.1,5,7.7
		C151.1,53,151.2,64.2,151.2,75.4z M123.9,51.7C114.8,33.8,86.6,23,62.8,27.8c-23.5,4.7-45.6,24.1-43.2,52.1
		c1.7,20.7,21.3,41.1,49.7,44.3c21.2,2.3,48.7-10.1,54-24.7c-5.9-3-11.8-6.1-17.7-9.1c-14.1,18.8-38.6,18.1-52.1,8.3
		c-14.2-10.3-16.2-29.7-4-42.4c5.6-5.9,13-9.4,21.6-10.2c14.8-1.3,26.1,4,34.2,14.9C111.8,57.8,117.8,54.8,123.9,51.7z M138.1,91.3
		c0.3-1,0.6-1.7,0.6-2.4c0.2-3.5,1.7-5.4,6.1-4.8c0.6,0.1,1.9-1.2,2.2-2.1c0.4-1.1,0.1-2.5,0.1-3.8c-2.2-0.2-3.8-0.4-5.8-0.5
		c0.5-1.7,0.8-3.1,1.2-4.3c1.7-0.2,3-0.4,4.8-0.6c-0.9-2.4,1.9-5.7-3.3-6.4c0.4-2.3,0.8-4.4,1.1-6.6c-6-1.2-6-1.2-8.9,6.8
		c-1.4,0-2.8,0-4.3,0c0.4-2.4,0.7-4.6,1.1-7.1c-2.3,0-5.4-0.7-6,0.1c-1.6,2-2.2,4.7-3.2,7.2c-2,0.1-4.1,0.2-6.4,0.3c0,2.1,0,4,0,5.9
		c2,0.2,3.6,0.3,5.4,0.4c-0.4,1.6-0.7,3-1,4.3c-1.6,0.2-3,0.4-5.1,0.6c0.5,2.1,0.3,5,1.5,5.5c2.4,1.1,1.6,2.3,1.5,3.7
		c-0.1,1.2-0.4,2.4-0.6,3.6c6.8,0.7,7,0.8,7.9-4c0.6-3.4,2.6-3.1,5.3-2.5c-0.4,2.3-0.7,4.4-1.1,6.7
		C133.7,91.3,135.8,91.3,138.1,91.3z"/>
	<path class="st0" d="M134.9,73.5c-0.4,1.5-0.7,2.9-1,4.4c-1.5,0-2.9,0-4.2,0C129.7,73,129.7,73,134.9,73.5z"/>
</g>
</svg>
