<?xml version="1.0" encoding="utf-8"?>
<!-- Generator: Adobe Illustrator 24.2.0, SVG Export Plug-In . SVG Version: 6.00 Build 0)  -->
<svg version="1.1" id="Layer_1" xmlns="http://www.w3.org/2000/svg" xmlns:xlink="http://www.w3.org/1999/xlink" x="0px" y="0px"
	 viewBox="0 0 50.4 50.4" style="enable-background:new 0 0 50.4 50.4;" xml:space="preserve">
<style type="text/css">
	.st0{fill:#128482;}
</style>
<g>
	<path class="st0" d="M0,0c16.8,0,33.6,0,50.4,0c-0.1,0.7-0.1,1.3-0.2,2c-0.2,2.2-0.5,4.5-0.7,6.7c-0.4,3.7-0.7,7.3-1.1,11
		c-0.4,4.3-0.9,8.5-1.3,12.8c-0.4,4.2-0.9,8.4-1.3,12.6c0,0.2-0.1,0.3-0.4,0.4c-6.7,1.6-13.3,3.3-20,4.9c-0.2,0-0.4,0.1-0.5,0
		c-6.7-1.6-13.4-3.3-20-4.9c-0.3-0.1-0.3-0.2-0.4-0.4C4,39.9,3.5,34.7,3,29.4c-0.4-4.3-0.9-8.6-1.3-12.8C1.2,12.3,0.8,8.1,0.4,3.8
		C0.3,2.6,0.1,1.4,0,0.2C0,0.1,0,0.1,0,0z M33,26.2c0,0.4-0.1,0.8-0.1,1.1c-0.2,2-0.4,3.9-0.6,5.9c0,0.1-0.1,0.2-0.2,0.3
		c-2.2,0.5-4.4,1-6.6,1.6c-0.1,0-0.2,0-0.3,0c-2.2-0.5-4.4-1.1-6.7-1.6c-0.2-0.1-0.3-0.1-0.3-0.3c-0.1-1.3-0.3-2.6-0.4-3.9
		c0-0.2-0.1-0.3-0.4-0.3c-1.9,0-3.8,0-5.7,0c-0.1,0-0.2,0-0.3,0c0.1,0.6,0.1,1.2,0.2,1.8c0.2,2.2,0.4,4.4,0.7,6.7
		c0,0.3,0.1,0.3,0.4,0.4c4.1,1,8.2,2,12.3,3c0.2,0,0.4,0,0.5,0c1.5-0.4,3.1-0.7,4.6-1.1c2.6-0.6,5.2-1.3,7.8-1.9
		c0.2-0.1,0.3-0.1,0.3-0.3c0-0.3,0.1-0.5,0.1-0.8c0.3-3.4,0.7-6.8,1-10.2c0.3-2.6,0.5-5.3,0.8-7.9c0.3-3,0.6-6,0.9-8.9
		c0-0.1,0-0.2,0-0.2c-10.5,0-21,0-31.5,0c0,0.1,0,0.2,0,0.3c0.2,1.6,0.3,3.2,0.5,4.8c0,0.4,0,0.4,0.5,0.4c7.8,0,15.5,0,23.3,0
		c0.1,0,0.3,0,0.4,0c0,0.1,0,0.2,0,0.2c-0.2,1.7-0.4,3.4-0.5,5.2c0,0.3-0.1,0.4-0.5,0.4c-5,0-10,0-15,0c-0.1,0-0.3,0-0.4,0
		c0,0.1,0,0.1,0,0.2c0.2,1.7,0.3,3.4,0.5,5.1c0,0.4,0,0.4,0.5,0.4c4.6,0,9.3,0,13.9,0C32.7,26.2,32.8,26.2,33,26.2z"/>
</g>
</svg>
