<?xml version="1.0" encoding="utf-8"?>
<!-- Generator: Adobe Illustrator 24.2.0, SVG Export Plug-In . SVG Version: 6.00 Build 0)  -->
<svg version="1.1" id="Layer_1" xmlns="http://www.w3.org/2000/svg" xmlns:xlink="http://www.w3.org/1999/xlink" x="0px" y="0px"
	 viewBox="0 0 151.2 151.2" style="enable-background:new 0 0 151.2 151.2;" xml:space="preserve">
<style type="text/css">
	.st0{fill:#128482;}
</style>
<g>
	<path class="st0" d="M116.5,151.2c-7,0-13.5-1.8-19.6-4.8c-7.5-3.7-13.7-8.9-19.5-14.5c-0.5-0.5-1-1.5-1.7-1.5
		c-0.7,0-1.1,0.9-1.6,1.4c-4.9,4.7-10.1,9.2-16.1,12.7c-6.8,4-14.1,6.6-22.3,6.7c-9.3,0.2-17.4-2.6-24.3-8.4
		c-5.9-5-9.5-11.1-10.8-18.4c-1.2-6.3-0.2-12.4,2.3-18.3c2.5-5.8,5.4-11.4,8.2-17C23.3,64.4,36.2,40,49.9,15.9
		c2.5-4.3,5.5-8.3,9.9-11.1c8.4-5.4,17.4-6.3,26.9-2.6c5.9,2.3,10,6.4,13.3,11.4c3.9,6,7.1,12.3,10.5,18.5
		c11.7,21.2,22.8,42.7,33.6,64.4c2.2,4.4,4.5,8.7,5.8,13.3c3.7,13.2,0.1,24.6-10.9,33.7C132.6,148.7,124.8,151.2,116.5,151.2z
		 M10.2,119.1c0,12.5,10.1,22.3,23,23c6.4,0.3,12.2-1.4,17.6-4.4c6.7-3.7,12.3-8.5,17.4-13.9c0.5-0.5,0.5-0.8,0-1.3
		c-3.8-4.4-7.5-9-10.6-14c-3.3-5.3-6.2-10.7-8-16.6c-1.6-5.2-2.3-10.5-1.2-15.9c1.3-7.1,5.2-12.7,11.8-16.5c8.8-5,18-5.5,27.4-1.8
		c7.2,2.9,12.1,7.9,14.5,15c1.6,4.7,1.6,9.4,0.8,14.2c-1.2,6.7-4,12.9-7.5,18.9c-3.5,6-7.8,11.5-12.3,16.8c-0.4,0.5-0.4,0.8,0.1,1.3
		c2.3,2.3,4.7,4.6,7.2,6.7c4.9,4.1,10.2,7.7,16.5,9.8c5.3,1.8,10.7,2.2,16.2,0.9c13.6-3.4,21.3-16.5,16.9-29
		c-1.3-3.9-3.2-7.5-5-11.2c-13.2-26.7-27-53.2-41.8-79.2c-1.3-2.3-2.7-4.6-4.6-6.7c-5.7-6.3-15.8-7.5-22.9-2.6c-3,2.1-5.1,5-6.8,8
		c-11,19.5-21.5,39.2-31.7,59c-4.9,9.5-9.7,19-14.2,28.7C11.2,112.1,10,115.7,10.2,119.1z M58.3,81.4c0,3.2,0.7,6.2,1.7,9.3
		c1.9,5.5,4.8,10.5,8.1,15.3c2.1,3.1,4.5,6.2,6.9,9.1c0.3,0.3,0.5,0.7,1,0.1c5.8-7,11-14.3,14.3-22.6c1.5-3.8,2.5-7.7,2.5-11.8
		c-0.1-3.7-1.1-7.1-3.7-10c-3.7-4.1-8.6-5.8-14.3-5.6c-5,0.1-9.3,1.8-12.7,5.3C59.3,73.6,58.3,77.4,58.3,81.4z"/>
</g>
</svg>
