<?xml version="1.0" encoding="utf-8"?>
<!-- Generator: Adobe Illustrator 24.2.0, SVG Export Plug-In . SVG Version: 6.00 Build 0)  -->
<svg version="1.1" id="Layer_1" xmlns="http://www.w3.org/2000/svg" xmlns:xlink="http://www.w3.org/1999/xlink" x="0px" y="0px"
	 viewBox="0 0 119.1 119.1" style="enable-background:new 0 0 119.1 119.1;" xml:space="preserve">
<style type="text/css">
	.st0{fill:#3b2f2f;}
</style>
<g>
	<path class="st0" d="M93.1,10.2c6,4.5,11.3,9.8,15.8,15.8c1,1.6,2,3.2,3,4.8c0.8,1.6,1.6,3.2,2.5,4.8c1.1,3.2,2.2,6.4,3.2,9.7
		c0.5,3.2,1,6.4,1.5,9.6c0,3.2,0,6.4,0,9.6c-0.5,3.2-1,6.4-1.4,9.6c-1.1,3.2-2.2,6.4-3.3,9.7c-0.8,1.6-1.6,3.2-2.4,4.8
		c-1,1.6-2,3.2-3,4.8c-4.5,6-9.8,11.3-15.7,15.8c-1.6,1-3.2,2-4.8,3c-1.6,0.8-3.2,1.6-4.8,2.4c-3.2,1.1-6.4,2.2-9.6,3.3
		c-3.2,0.5-6.4,1-9.6,1.4c-3.2,0-6.4,0-9.6,0c-3.2-0.5-6.4-1-9.6-1.5c-3.2-1.1-6.4-2.2-9.6-3.2c-1.6-0.8-3.2-1.6-4.8-2.4
		c-1.6-1-3.2-2-4.8-3c-6-4.6-11.2-9.8-15.8-15.8c-1-1.6-2-3.2-3-4.8c-0.8-1.6-1.6-3.2-2.4-4.8c-1.1-3.2-2.2-6.4-3.3-9.7
		c-0.5-3.2-1-6.4-1.5-9.6c0-3.2,0-6.4,0-9.6c0.5-3.2,1-6.4,1.5-9.6c1.1-3.2,2.2-6.4,3.3-9.7c0.8-1.6,1.6-3.2,2.4-4.8
		c1-1.6,2-3.2,3-4.8c4.5-6,9.8-11.2,15.7-15.8c1.6-1,3.2-2,4.8-3c1.6-0.8,3.2-1.6,4.8-2.4c3.2-1.1,6.4-2.2,9.7-3.2
		c3.2-0.5,6.4-1,9.6-1.5c3.2,0,6.4,0,9.6,0c3.2,0.5,6.4,1,9.6,1.5c3.2,1.1,6.4,2.2,9.7,3.3c1.6,0.8,3.2,1.6,4.8,2.5
		C89.9,8.2,91.5,9.2,93.1,10.2z M40.1,61.4c3.1,0,6.2,0,9.4,0c8.3,0,8.4,0,6.5-8.3c-3.7-16.3-17.6-19.8-28.3-14.7
		c-8.9,4.3-12,12.3-11.8,21.7c0.3,15.1,9.3,23.5,23.8,22.4c6.4-0.5,11.5-3.3,14.7-9.1c2.6-4.8,2.3-5.2-3-5.2c-1.6,0-2.7,0.3-3.1,2.1
		c-0.4,1.6-1.6,2.8-3,3.7c-4.6,3.1-9.5,3.1-14.4,0.9c-5-2.3-6.8-6.7-7.2-11.9c-0.1-1.6,0.7-1.7,1.9-1.6
		C30.3,61.4,35.2,61.4,40.1,61.4z M101.2,36.4c-2.6,0-4.5,0.1-6.5,0c-1.9-0.1-3.1,0.5-4.1,2c-2.7,4.1-5.7,7.9-8.4,12
		c-1.2,1.7-1.9,2-3.1,0c-2.7-4.2-5.6-8.2-8.4-12.3c-0.4-0.6-0.7-1.6-1.6-1.6c-3-0.1-5.9,0-9.3,0c4.1,5.6,7.9,10.8,11.7,16
		c1.4,1.9,3.9,3.7,3.9,5.9c0,2.2-2.4,4-3.8,5.9c-3.9,5.5-7.8,11-11.7,16.4c-0.3,0.5-1.1,1-0.6,1.7c0.3,0.5,1,0.2,1.6,0.3
		c1.6,0,3.2-0.1,4.8,0c1.7,0.2,2.6-0.6,3.5-1.9c3.3-5.1,6.8-10.1,10.1-15.2c1-1.6,1.6-1.8,2.8-0.1c3.4,5.2,6.9,10.4,10.4,15.5
		c0.4,0.6,0.6,1.5,1.4,1.5c3,0.1,5.9,0,9.4,0C97.4,74.6,92,67,86.5,59.5c-1-1.3-1-2.2,0-3.5C91.4,49.7,96.1,43.3,101.2,36.4z"/>
	<path class="st0" d="M36.2,54.9c-3.5,0-7-0.1-10.5,0c-1.7,0.1-1.9-0.5-1.7-2.1c1.1-6.1,6.3-10.5,12.5-10.4
		c6.3,0.1,11.6,4.8,12.5,10.9c0.2,1.3-0.3,1.7-1.5,1.7C43.7,54.9,39.9,54.9,36.2,54.9z"/>
</g>
</svg>
