<?xml version="1.0" encoding="utf-8"?>
<!-- Generator: Adobe Illustrator 24.2.0, SVG Export Plug-In . SVG Version: 6.00 Build 0)  -->
<svg version="1.1" id="Layer_1" xmlns="http://www.w3.org/2000/svg" xmlns:xlink="http://www.w3.org/1999/xlink" x="0px" y="0px"
	 viewBox="0 0 151.2 151.2" style="enable-background:new 0 0 151.2 151.2;" xml:space="preserve">
<style type="text/css">
	.st0{fill:#128482;}
</style>
<g>
	<path class="st0" d="M151.2,73.9c0,1.3,0,2.7,0,4c-1.8,2.4-3.3,5-5.4,7.1c-20.2,20.3-40.5,40.6-60.8,60.8c-2.1,2.1-4.7,3.6-7.1,5.4
		c-1.6,0-3.1,0-4.7,0c-2.1-1.6-4.4-3-6.3-4.8c-20.8-20.6-41.5-41.3-62.1-62.1c-2-2-3.3-4.7-4.9-7c0-1.3,0-2.7,0-4
		c1.3-1.9,2.4-4.1,4-5.7c14.1-14.2,28.3-28.4,42.5-42.5c0.5-0.5,1.1-1,1.7-1.5c5.1,5,9.9,10,14.9,14.8c1.4,1.4,1.9,2.5,1.5,4.6
		c-0.9,4.8,0.9,8.7,4.8,11.7c1,0.8,1.9,2.4,1.9,3.7c0.1,12.1,0.1,24.2,0,36.3c0,1.2-0.9,2.9-1.9,3.6c-5.6,4.2-6.8,11.9-2.3,17.2
		c4.4,5.2,12.2,5.5,17,0.8c5-4.9,4.5-12.7-0.9-17.5c-1-0.9-1.9-2.5-1.9-3.8c-0.1-11.7-0.1-23.5-0.1-35.3c0-0.8,0.2-1.6,0.4-3.1
		c4.3,4.4,7.9,8.3,11.8,12c2,1.9,3.2,3.6,2.7,6.9c-0.9,6.8,4.6,12.5,11.3,12.5c6.8,0,12-5.6,11.6-12.4c-0.4-6.6-6.4-11.5-13.2-10.7
		c-1.2,0.1-2.8-0.4-3.7-1.2c-4.3-4.1-8.4-8.4-12.7-12.5c-1.6-1.5-2.1-3-2-5.3c0.6-7.7-5.4-13.3-13-12.4c-0.9,0.1-2.2,0.2-2.8-0.4
		c-5.6-5.4-11-11-16.7-16.7c2.2-2.1,4.2-4.1,6.3-6c4-3.5,8.1-6.9,12.1-10.3c1.3,0,2.7,0,4,0c2.3,1.6,4.8,2.8,6.8,4.7
		c20.9,20.7,41.7,41.5,62.4,62.4C148.4,69.1,149.6,71.6,151.2,73.9z"/>
</g>
</svg>
