<?xml version="1.0" encoding="utf-8"?>
<!-- Generator: Adobe Illustrator 24.2.0, SVG Export Plug-In . SVG Version: 6.00 Build 0)  -->
<svg version="1.1" id="Layer_1" xmlns="http://www.w3.org/2000/svg" xmlns:xlink="http://www.w3.org/1999/xlink" x="0px" y="0px"
	 viewBox="0 0 50.4 50.4" style="enable-background:new 0 0 50.4 50.4;" xml:space="preserve">
<style type="text/css">
	.st0{fill:#128482;}
</style>
<g>
	<path class="st0" d="M0,0c16.8,0,33.6,0,50.4,0c-0.1,0.6-0.1,1.1-0.2,1.7C50.1,2.8,50,4,49.9,5.2c-0.1,1.3-0.3,2.5-0.4,3.8
		c-0.1,1.3-0.3,2.7-0.4,4c-0.1,1-0.2,2-0.3,3c-0.1,1-0.2,2-0.3,2.9c-0.1,1.1-0.2,2.2-0.4,3.3c-0.2,1.5-0.3,3.1-0.5,4.6
		c-0.2,1.6-0.3,3.2-0.5,4.7c-0.2,1.6-0.3,3.1-0.5,4.7c-0.1,1.2-0.2,2.5-0.4,3.7c-0.1,1.3-0.3,2.5-0.4,3.8c0,0.5-0.1,0.9-0.2,1.4
		c0,0.1-0.1,0.2-0.2,0.3c-0.5,0.1-1,0.2-1.5,0.4c-1.4,0.3-2.9,0.7-4.3,1c-2.1,0.5-4.1,1-6.2,1.5c-1.3,0.3-2.6,0.6-3.9,0.9
		c-1,0.2-2,0.5-3,0.7c-0.5,0.1-1.1,0.3-1.6,0.4c0,0-0.1,0-0.1,0c-0.1,0-0.2-0.1-0.3-0.1c-1.7-0.4-3.5-0.8-5.2-1.3
		c-2.4-0.6-4.7-1.2-7.1-1.7c-2.6-0.6-5.1-1.2-7.7-1.9c-0.1,0-0.2-0.1-0.2-0.2c-0.1-0.8-0.2-1.5-0.2-2.3c-0.1-1-0.2-1.9-0.3-2.9
		c-0.1-1-0.2-2-0.3-3c-0.1-0.7-0.1-1.3-0.2-2c-0.1-1.1-0.2-2.2-0.4-3.3C3.1,30.8,3.1,29.9,3,29c-0.1-1.4-0.3-2.7-0.4-4
		c-0.1-1.3-0.3-2.5-0.4-3.8c-0.1-0.7-0.1-1.4-0.2-2.1c-0.1-1-0.2-2.1-0.3-3.1c-0.1-1.2-0.2-2.3-0.3-3.5C1.2,11,1,9.6,0.9,8.2
		C0.8,7.5,0.7,6.8,0.6,6C0.6,5.2,0.5,4.4,0.4,3.5C0.3,2.6,0.2,1.7,0.1,0.9C0.1,0.6,0,0.3,0,0z M11.4,28.9c0,0.4,0,0.7,0.1,1
		c0.2,1.5,0.3,3,0.5,4.4c0.1,1,0.2,1.9,0.3,2.9c0,0.2,0.1,0.4,0.4,0.5c2.3,0.5,4.5,1.1,6.8,1.7c1.5,0.4,3.1,0.8,4.6,1.1
		c0.7,0.2,1.3,0.3,2,0.1c1.5-0.5,3.1-0.8,4.7-1.2c1.1-0.3,2.2-0.5,3.3-0.8c1.3-0.3,2.7-0.7,4-1c0.1,0,0.2-0.1,0.2-0.2
		c0.1-0.7,0.1-1.3,0.2-2c0.2-1.5,0.3-3,0.5-4.6c0.1-1.2,0.2-2.3,0.4-3.5c0.1-0.7,0.1-1.5,0.2-2.2c0.1-0.9,0.2-1.8,0.3-2.8
		c0.1-0.6,0.1-1.3,0.2-1.9c-0.2,0-0.3,0-0.5,0c-7.4,0-14.8,0-22.2,0c-0.4,0-0.4,0-0.4-0.4c-0.1-0.7-0.1-1.4-0.2-2.1
		c-0.1-1-0.2-2.1-0.3-3.2c0.2,0,0.4,0,0.5,0c3,0,5.9,0,8.9,0c2.1,0,4.2,0,6.4,0c2.7,0,5.4,0,8.1,0c0.2,0,0.3,0,0.4-0.3
		c0.1-1.6,0.3-3.3,0.5-4.9c0-0.5,0-0.5-0.5-0.5c-5.2,0-10.4,0-15.5,0c-5.1,0-10.2,0-15.3,0c-0.3,0-0.4,0.1-0.3,0.3
		c0.1,0.9,0.2,1.7,0.3,2.6c0.1,1.3,0.3,2.6,0.4,3.9c0.1,1.1,0.2,2.2,0.3,3.3c0.1,1.4,0.3,2.7,0.4,4.1c0.1,0.8,0.2,1.6,0.2,2.4
		c0,0.2,0.1,0.2,0.3,0.2c0.4,0,0.8,0,1.1,0c5.2,0,10.4,0,15.6,0c1.5,0,3,0,4.6,0c0.2,0,0.3,0,0.3,0.3c-0.1,0.5-0.1,0.9-0.1,1.4
		c-0.2,1.7-0.4,3.5-0.5,5.2c0,0.2-0.1,0.3-0.3,0.4c-2.1,0.5-4.3,1-6.4,1.5c-0.2,0-0.5,0.1-0.7,0c-2.1-0.5-4.2-1-6.4-1.5
		c-0.2,0-0.3-0.1-0.3-0.3c-0.1-1.3-0.3-2.6-0.4-3.9c0-0.3-0.1-0.3-0.4-0.3c-1.9,0-3.7,0-5.6,0C11.6,28.9,11.5,28.9,11.4,28.9z"/>
</g>
</svg>
