<?xml version="1.0" encoding="utf-8"?>
<!-- Generator: Adobe Illustrator 24.2.0, SVG Export Plug-In . SVG Version: 6.00 Build 0)  -->
<svg version="1.1" id="Layer_1" xmlns="http://www.w3.org/2000/svg" xmlns:xlink="http://www.w3.org/1999/xlink" x="0px" y="0px"
	 viewBox="0 0 151.2 151.2" style="enable-background:new 0 0 151.2 151.2;" xml:space="preserve">
<style type="text/css">
	.st0{fill:#128482;}
</style>
<g>
	<path class="st0" d="M34.1,119c-3.4,0-6.7,0.1-10,0.8c-1.7,0.4-3.3,0.9-4.7,1.7c-2,1.3-2.1,2.8-0.2,4.2c1.6,1.2,3.6,1.8,5.6,2.4
		c6.7,1.9,13.8,2.7,20.9,3.3c16.9,1.4,33.8,1.4,50.7,0c7-0.6,13.8-1.5,20.5-3.1c2.4-0.6,4.7-1.3,6.9-2.2c5.9-2.4,7.3-4.2,7.1-9.1
		c6.7,1.5,8.7,6.2,4.4,10.3c-2.8,2.6-6.5,4.1-10.4,5.4c-9.6,3.1-19.7,4.5-29.9,5.5c-17,1.6-34,1.8-51.1,0.6
		c-10.5-0.7-20.8-2-30.7-4.8c-3-0.9-5.9-2-8.5-3.5c-1.2-0.7-2.2-1.5-3.1-2.4c-2.5-2.8-2.2-5.4,1.1-7.7c2.9-2.1,6.5-3.2,10.4-3.9
		c4.3-0.8,8.7-0.8,13-0.5C29.3,116.2,31.5,117.9,34.1,119z"/>
	<path class="st0" d="M73.2,77c-6.3-3.1-11.9-6.8-16.8-11c-3.9-3.3-7.4-6.9-9.8-11c-3.2-5.7-2.6-11,2.3-15.9
		c4.1-4.2,9.4-7.6,14.6-11c6-3.9,12.2-7.5,17.5-12c3.6-3,6.6-6.3,7.8-10.4c0.4-1.5,0.4-3.1,0.2-4.6c0-0.3-0.8-0.8,0-1
		c0.7-0.2,0.9,0.4,1.1,0.7c3.4,5,4.4,10.3,2.3,15.8c-1.9,5-5.7,9.2-10.2,13.1c-4.6,3.9-9.4,7.7-14.1,11.6c-2.7,2.2-5.2,4.6-7,7.3
		c-2,3-2.3,6-0.5,9.2c3.5,6.4,7.3,12.7,12.1,18.6C72.8,76.5,73,76.7,73.2,77z"/>
	<path class="st0" d="M113.5,80.2c-1.1,1.2-2.4,1.8-3.5,2.4c-8.4,5-8.4,5-18.7,6.2c-17.1,1.9-34.2,2.8-51.5,1.9
		c-5.9-0.3-11.8-0.8-17.5-2.1c-2.3-0.5-4.5-1.2-6.4-2.3c-3-1.8-3.1-4.2-0.4-6.2c2-1.4,4.4-2.1,6.9-2.7c6.7-1.6,13.6-2.1,20.5-2.4
		c2.7-0.1,5.4,0,8.5,0c-1.9,0.4-3.6,0.8-5.3,1.2c-2.7,0.7-5.4,1.4-7.8,2.4c-0.7,0.3-1.4,0.6-2,1c-1.7,1.1-1.5,1.9,0.6,2.4
		c2.3,0.5,4.7,0.7,7.2,0.9c14.9,0.8,29.8,0.4,44.7-0.4C96.9,82.1,105,81.4,113.5,80.2z"/>
	<path class="st0" d="M119.1,24.8c-4.7,2.6-9.4,5-13.9,7.7c-4.3,2.6-8.5,5.3-12.2,8.5c-3.9,3.3-4.6,7-2,10.9
		c1.4,2.2,2.9,4.4,4.5,6.5c6.8,9.4,0.2,16.3-7.6,19.8c-1.5,0.7-3.1,1.2-4.7,1.7c-1,0.3-2,0.5-3.6,0.9c1-0.9,1.6-1.4,2.3-2
		c5.8-5.1,6.2-9.4,1.4-15.1c-1.2-1.5-2.5-2.9-3.8-4.3c-8.8-9.4-3.3-19,3.9-24.2c4.9-3.5,10.8-5.8,17.2-7.5
		C106.6,26.2,112.7,25.1,119.1,24.8z"/>
	<path class="st0" d="M42.6,91.9c0,0.7-0.5,0.8-0.7,1.1c-1.3,1.4-1,2.5,1,3.5c2.9,1.4,6.1,1.8,9.4,2.1c14,1.2,27.8,0.5,41.3-2.4
		c1.3-0.3,2.4-0.2,3.6,0.4c3.1,1.6,6.3,3.1,9.6,4.7c-0.5,0.7-1.4,0.7-2.1,0.9c-16.5,4.5-33.5,5.8-50.8,4.7
		c-5.6-0.4-11.1-1.1-16.4-2.4c-2.4-0.6-4.7-1.3-6.7-2.4c-2.9-1.6-3.2-3.6-0.7-5.6C33.4,93.7,37.7,92.4,42.6,91.9z"/>
	<path class="st0" d="M48.3,107.9c-1.1,2.7-0.5,3.5,2.9,4.2c5.6,1.2,11.3,1.1,17,0.8c7.6-0.4,15.1-1.2,22.3-3.3
		c0.9-0.3,1.5-0.1,2.2,0.3c3.2,1.7,6.5,3.3,9.7,4.9c1.4,0.7,1.1,1-0.1,1.5c-5.8,2.3-12,3.7-18.3,4.5c-12.7,1.7-25.4,2-38-0.1
		c-2.8-0.5-5.4-1.2-7.8-2.4c-3.4-1.8-3.9-4.1-1.3-6.6C39.9,109.2,43.8,108.1,48.3,107.9z"/>
	<path class="st0" d="M151.2,130.7c0,2.2-1,3.9-2.4,5.5c-2.4,2.8-5.8,4.8-9.6,6.4c-8.6,3.8-18.1,5.7-27.8,6.9
		c-27.9,3.3-55.2,1.5-81.8-5.7c-0.6-0.2-1.3-0.4-1.9-0.6c-0.1,0-0.2-0.1-0.5-0.3c1.3-0.2,2.3,0.1,3.4,0.3c21.5,3.4,43.1,4.5,65,2.9
		c9.4-0.7,18.6-2,27.6-4.1C134.4,139.5,139.5,137.4,151.2,130.7z"/>
	<path class="st0" d="M113.2,107.5c5-3,9.8-6.2,13.7-10.1c2.2-2.3,4.1-4.7,5.1-7.4c2.4-6.4-2.4-11.5-11.2-11.8c-1.1,0-2.2,0-3.8,0
		c5.9-2.9,11.7-4.4,18.2-2.5c6,1.8,8.4,5.6,8.7,10.2c0.4,6.1-2.6,11.1-8.8,14.9c-6,3.8-13.1,5.7-20.7,6.8
		C114,107.6,113.5,107.5,113.2,107.5L113.2,107.5z"/>
	<polygon class="st0" points="113.2,107.5 113.2,107.6 113.2,107.5 	"/>
</g>
</svg>
