<?xml version="1.0" encoding="utf-8"?>
<!-- Generator: Adobe Illustrator 24.2.0, SVG Export Plug-In . SVG Version: 6.00 Build 0)  -->
<svg version="1.1" id="Layer_1" xmlns="http://www.w3.org/2000/svg" xmlns:xlink="http://www.w3.org/1999/xlink" x="0px" y="0px"
	 viewBox="0 0 151.2 151.2" style="enable-background:new 0 0 151.2 151.2;" xml:space="preserve">
<style type="text/css">
	.st0{fill:#128482;}
</style>
<g>
	<path class="st0" d="M50,0c33.7,0,67.5,0,101.2,0c0,0.3,0,0.5,0,0.8c-0.1-0.1-0.1-0.1-0.2,0c-0.1,0.1-0.1,0.3-0.2,0.4
		c-6.9,18.5-13.8,36.9-20.8,55.4c-0.1,0.2-0.2,0.3-0.2,0.5c0.1,0.1,0.2,0.1,0.4,0.1c12.8,2.5,19.3,15.5,12.8,25.8
		c-0.2,0.3-0.2,0.6,0,0.9c3.5,5.6,4.9,11.6,4,18.1c-0.7,4.6-2.6,8.8-5.7,12.6c-3.8,4.6-8.7,7.7-14.6,9.7c-4.3,1.5-8.8,2.2-13.4,2.8
		c-2.9,0.4-5.8,0.8-8.6,1.2c-4.8,0.7-9.4,1.9-14,3.5c-4.8,1.7-9.5,3.6-14.1,5.7c-5,2.2-9.9,4.5-15,6.6c-4.6,1.9-9.4,3.7-14.3,5
		c-3.8,1-7.6,1.7-11.6,1.9c-0.1,0-0.3,0-0.4,0.1c-0.1,0.1,0,0.1,0,0.1c-1.2,0-2.4,0-3.5,0c0.1-0.1,0.1-0.1,0-0.2
		c-0.2,0-0.4,0-0.6-0.1c-1.3-0.1-2.5-0.2-3.7-0.4c-4.3-0.7-8.2-2.1-12-4.2c-5.1-2.8-9-6.5-11.6-11.3c-1.9-3.5-3-7.1-3.4-10.9
		c0-0.3-0.1-0.7-0.1-1c0-0.2-0.1-0.1-0.2,0c0-0.2,0-0.4,0-0.6c0.1,0.1,0.2,0.1,0.2,0c0-0.4,0-0.8-0.2-1.2c0-1.4,0-2.9,0-4.3
		c0.2,0.1,0.2-0.1,0.2-0.2c0-0.1,0.1-0.2-0.1-0.2c0,0-0.1,0.1-0.1,0.1c0-0.2,0-0.5,0-0.7c0.2,0.2,0.2,0,0.3-0.1
		c0.1-0.8,0.2-1.6,0.3-2.4c0.5-3.5,1.4-6.9,2.7-10.3c1.4-3.7,3.3-7.3,5.2-10.9c0.9-1.7,1.8-3.3,2.7-5c0.2-0.3,0.2-0.5-0.1-0.7
		c-0.1,0-0.1-0.1-0.2-0.2C6.2,81.9,4.5,76.6,6,70.6c2.3-9.4,12.5-15.2,22.9-13.2c9.8,1.9,17,10.6,14.9,20.4
		c-1.3,5.8-5,9.9-10.9,12.5c-0.6,0.3-1.4,0.3-1.8,0.8c-0.4,0.5-0.6,1.1-0.8,1.7c-1,2.3-1.3,4.7-0.8,7.1c0.9,4.3,3.4,7.5,7.3,9.9
		c0.3,0.2,0.5,0.2,0.8,0.1c2.6-0.9,5.1-2,7.4-3.3c7.8-4.2,14.2-9.7,19.5-16.3c0.3-0.4,0.5-0.7,0.8-1.1c-0.1-0.2-0.3-0.2-0.5-0.3
		c-6.3-3.8-9.6-10.5-8.4-17.3c0.8-4.7,3.4-8.5,7.7-11.4c2-1.4,4.3-2.3,6.7-2.9c0.5-0.1,0.5-0.1,0.3-0.5c0,0,0-0.1,0-0.1
		c-7-18.7-14-37.4-21-56.1C50.1,0.5,50,0.3,50,0z M106.9,74.6c0-0.2,0-0.4,0-0.6c0-1.1,0.2-2.3,0.4-3.4c0.8-3.3,2.5-6.1,5.2-8.5
		c0.4-0.4,0.4-0.3,0.1-0.8c-0.8-1.4-1.5-2.8-2.3-4.2c-3.1-5.8-6.3-11.5-9.4-17.3c-0.1-0.2-0.1-0.4-0.4-0.5c-0.1,0.1-0.1,0.2-0.2,0.3
		c-3.4,6.1-6.7,12.3-10.1,18.5c-0.5,1-1.1,2-1.6,3c-0.1,0.2-0.2,0.4,0.1,0.6c0.1,0.1,0.2,0.2,0.3,0.3c2.6,2.3,4.4,5.1,5.3,8.3
		c0.4,1.4,0.5,2.9,0.6,4.3c-0.1,1.6-0.3,3.2-0.8,4.7c-2.6,8.1-11.3,13.6-20.9,12.5c-0.4,0-0.6,0-0.9,0.4c-4.1,5.7-9,10.7-14.8,15
		c-6.2,4.6-13,8.1-20.5,10.4c-0.3,0.1-0.5,0.1-0.8,0c-0.6-0.3-1.3-0.6-1.9-0.9c-3.7-1.9-6.8-4.5-9.1-7.8c-3.2-4.7-4.3-9.8-3-15.2
		c0.1-0.6,0.3-1.1,0.4-1.6c-0.1,0-0.2-0.1-0.2-0.1c-1.5-0.2-2.9-0.5-4.3-0.9c-0.5-0.2-0.5-0.2-0.7,0.3c-1.4,2.6-2.8,5.3-4.2,7.9
		c-1.3,2.4-2.4,4.9-3.3,7.5c-1.3,3.6-2,7.4-2.2,11.2c-0.2,3.4,0.1,6.7,1.1,10c1.1,3.7,2.9,7,6,9.6c4.6,4,10.1,6.2,16.4,6.8
		c3.1,0.3,6.2,0,9.2-0.5c3.8-0.7,7.5-1.8,11.2-3.1c4.7-1.7,9.3-3.7,13.8-5.7c5.5-2.4,10.9-5,16.5-7.2c4-1.6,8-3,12.2-4.1
		c4.9-1.4,10-2.1,15-2.7c3.2-0.4,6.4-0.8,9.6-1.5c2.9-0.6,5.7-1.3,8.3-2.6c7.5-3.6,11.9-9.1,12.7-16.8c0.4-3.8-0.4-7.4-2.2-10.9
		c0-0.1-0.1-0.2-0.2-0.2c-0.1,0-0.1,0-0.1,0c-0.1,0.1-0.3,0.2-0.4,0.2c-4.2,2.4-8.8,3.3-13.7,2.5c-7.4-1.1-13.3-6-15.3-12.5
		C107.2,77.7,107,76.2,106.9,74.6z M60.6,6.9c0.1,0.2,0.1,0.4,0.2,0.6c5.6,15.1,11.3,30.2,17,45.3c0.5,1.3,1,2.7,1.5,4
		c0.1,0.3,0.3,0.5,0.7,0.6c0.4,0,0.9,0.2,1.3,0.3c0.9,0.2,0.7,0.3,1.1-0.4c6-11,12-22,18-33c0.1-0.2,0.2-0.4,0.4-0.6
		c0.1,0.2,0.2,0.4,0.3,0.5c5.4,9.9,10.8,19.9,16.1,29.8c0.7,1.2,1.4,2.5,2,3.7c0.1,0.3,0.3,0.3,0.6,0.2c0.5-0.2,0.9-0.3,1.4-0.4
		c0.4-0.1,0.6-0.3,0.8-0.7c2.8-7.4,5.6-14.9,8.4-22.3c3.4-9,6.7-18,10.1-27c0.1-0.2,0.2-0.4,0.1-0.6C114,6.9,87.3,6.9,60.6,6.9z
		 M75.7,85c6.5,0,11.7-4.8,11.7-10.6c0-5.8-5.3-10.6-11.7-10.6c-6.5,0-11.8,4.8-11.8,10.6C63.9,80.3,69.2,85,75.7,85z M138,74.4
		c0-5.9-5.3-10.6-11.7-10.6c-6.5,0-11.8,4.8-11.7,10.7c0,5.8,5.3,10.6,11.8,10.6C132.8,85,138,80.2,138,74.4z M24.8,63.9
		c-6.5,0-11.7,4.7-11.8,10.6c0,5.9,5.2,10.6,11.7,10.6c6.5,0,11.8-4.7,11.8-10.6C36.6,68.6,31.3,63.9,24.8,63.9z"/>
	<path class="st0" d="M0,121.3c0.2,0.4,0.2,0.8,0.2,1.2c0,0.1-0.1,0.1-0.2,0C0,122.2,0,121.8,0,121.3z"/>
	<path class="st0" d="M0,116.7C0,116.6,0.1,116.6,0,116.7c0.3-0.1,0.2,0.1,0.2,0.2c0,0.1,0,0.3-0.2,0.2C0,116.9,0,116.8,0,116.7z"/>
</g>
</svg>
