<?xml version="1.0" encoding="utf-8"?>
<!-- Generator: Adobe Illustrator 24.2.0, SVG Export Plug-In . SVG Version: 6.00 Build 0)  -->
<svg version="1.1" id="Layer_1" xmlns="http://www.w3.org/2000/svg" xmlns:xlink="http://www.w3.org/1999/xlink" x="0px" y="0px"
	 viewBox="0 0 151.2 151.2" style="enable-background:new 0 0 151.2 151.2;" xml:space="preserve">
<style type="text/css">
	.st0{fill:#128482;}
</style>
<g>
	<path class="st0" d="M0.1,75.5c0-11.7,0.1-23.4-0.1-35.2c0-2.1,0.7-3.2,2.8-4.3C26.2,24.4,49.5,12.6,72.7,0.8c2-1,3.5-1.1,5.6-0.1
		c23.3,11.8,46.6,23.6,69.9,35.3c2.2,1.1,3,2.5,3,4.6c0,23.6,0,47.1-0.1,70.7c0,1.4-1.2,3.3-2.5,4c-23.3,12-46.8,23.8-70.3,35.5
		c-1.3,0.7-3.8,0.6-5.2,0c-23.2-11.5-46.2-23.3-69.4-34.8c-2.8-1.4-3.8-3-3.8-5.9C0.2,98.5,0.1,87,0.1,75.5z M51.9,40.8
		c-9.2,6.8-11.4,18.7-5,29.2c8.5,13.8,23,20.3,40.6,17.4c10.1-1.6,20.3-9.6,20.4-15.3C97.6,82.2,81.1,81.9,70,76.8
		C54.3,69.7,48.6,58.4,51.9,40.8z M109.8,57.7c-11.7,9.6-21.2,7.1-28.6,3.8c-5.4-2.4-9.4-6.2-11.9-11.1c-2.6-5.2-2.3-10.4,0.8-16.4
		c-8,7.2-9.6,15-5.4,22.7c4.9,9,15.1,14,27.1,13.3C100.2,69.5,107.4,64.8,109.8,57.7z M57.7,104c-0.2,0-0.5-0.1-0.7-0.1
		c0.8-2.2,1.8-4.5,2.3-6.8c1.4-5.5-2.4-9.9-8.8-10.2c-9.7-0.6-17.4,7.9-15.2,16.5c0.9,3.6,3.3,5.6,7.4,5.7c4.5,0.2,9,0.2,13.5-0.1
		c1-0.1,2.2-1.5,2.6-2.5C58.9,105.9,58,104.9,57.7,104z M86.6,103.5c0-0.4,0.1-0.8,0.1-1.1c3,0,6,0,9,0c1.1,0,2.5,0,3.2-0.6
		c3-2.4,1-9.2-3-10.1c-4.3-0.9-8.6-0.8-11.8,2.2c-3.5,3.3-4.6,7.6-3.4,11.9c0.4,1.3,2.7,3,4.3,3.2c4,0.5,8.1,0.2,12.3,0.2
		c0.3-1.5,0.5-2.8,0.8-4C94.3,103.5,89.8,106.1,86.6,103.5z M69,92.2c-0.3-0.4-0.5-0.8-0.8-1.1c-1.7,0.7-4.5,1-4.9,2.1
		c-1.3,3.5-2.1,7.2-2.3,10.9c-0.1,1.6,1.8,4.3,3.3,4.6c3.7,0.8,7.6,0.5,11.5,0.5c0.4,0,1.2-0.6,1.3-1c1.4-5.4,2.7-10.9,4-16.2
		c-4.1-1-6.1-0.3-6.5,3.2c-0.3,2.4-1.3,4.8-1.7,7.3c-0.3,2.6-2.4,2.5-4.2,2c-0.9-0.3-1.8-2-1.6-3C67.4,98.4,68.3,95.3,69,92.2z
		 M137.2,89.2c-4.5-0.8-7.8-0.6-9.9,3.1c-1.3,2.3-3.3,4.2-4.3,5.5c-3.1-0.4-5.4-0.8-7.8-1.1c0.7,4.4,1.2,8.3,1.8,12.4
		c3.2,0.7,6,0.4,6.7-3.7c0.2-1.4,1.9-2.6,2.9-3.9C130.1,97.5,133.5,93.5,137.2,89.2z M83.3,32.2c-4.1,2.6-5.5,7.3-3.6,12.2
		c2.3,6,9.1,10,16.8,9.8c5.9-0.1,10-2.7,11.4-7.1c-6.1,4-12.1,4.3-18.1,0.8C83.5,44.4,81.4,39.1,83.3,32.2z M108.8,96.2
		c4.1,0,7.9,0,11.9,0c0.1-3.1-1.2-4.7-4.4-4.7c-3.2,0-6.4-0.1-9.6,0.1c-1,0.1-2.6,0.8-2.7,1.5c-1.4,5.2-2.6,10.4-3.9,15.7
		c5.5,0.9,5.6,0.9,6.6-3.1C107.3,102.7,107.9,99.8,108.8,96.2z M19.2,115.9c6.4,0.8,8.8,0.3,10-3c1.8-5.1,3-10.3,4.5-15.5
		c-5.9-1-6.1-0.9-7.1,3.3c-0.6,2.5-1.1,5.1-1.9,7.6c-0.4,1.1-1.2,2.8-2.1,2.9C19,111.7,19.5,113.8,19.2,115.9z M34.5,91.9
		c-5.7-0.9-6.1-0.7-6.3,3.8C33.3,97.1,34.2,96.5,34.5,91.9z"/>
	<path class="st0" d="M47.3,104.4c-4.9,0-6-1-5.5-5.1c0.4-3.2,1.3-6.3,5.5-7.3c3.8-0.9,6.4,1.2,5.8,4.5c-0.3,1.6-1.1,3.2-1.4,4.9
		C51.1,103.8,49.9,105,47.3,104.4z"/>
	<path class="st0" d="M93.8,97.9c-1.9,0-3.8,0-5.8,0c-0.2-0.2-0.3-0.3-0.5-0.5c1.1-0.6,2.2-1.4,3.4-1.6c1-0.1,2.1,0.7,3.2,1.1
		C94,97.3,93.9,97.6,93.8,97.9z"/>
</g>
</svg>
