<?xml version="1.0" encoding="utf-8"?>
<!-- Generator: Adobe Illustrator 24.2.0, SVG Export Plug-In . SVG Version: 6.00 Build 0)  -->
<svg version="1.1" id="Layer_1" xmlns="http://www.w3.org/2000/svg" xmlns:xlink="http://www.w3.org/1999/xlink" x="0px" y="0px"
	 viewBox="0 0 50.4 50.4" style="enable-background:new 0 0 50.4 50.4;" xml:space="preserve">
<style type="text/css">
	.st0{fill:#128482;}
</style>
<g>
	<path class="st0" d="M50.4,50.4c-16.8,0-33.6,0-50.4,0C0,33.6,0,16.8,0,0c16.8,0,33.6,0,50.4,0C50.4,16.8,50.4,33.6,50.4,50.4z
		 M30,41.6c0.7,1.4,1.6,2.5,2.8,3.3c2.4,1.6,5.1,1.9,7.9,1.4c5-0.9,6.6-4.9,5.5-8.7c-0.5-1.9-1.9-3.1-3.5-4
		c-1.3-0.7-2.7-1.3-4.1-1.9c-0.6-0.3-1.3-0.6-1.8-1.1c-0.7-0.5-0.8-1.3-0.6-2.1c0.2-0.8,0.8-1.2,1.6-1.4c1.2-0.2,2.3,0.2,3,1.2
		c0.2,0.2,0.3,0.5,0.5,0.8c1.2-0.8,2.5-1.6,3.7-2.4c-0.7-1.2-1.5-2.2-2.6-2.8c-1.6-0.9-3.3-1.1-5.1-0.9c-2.5,0.2-4.5,1.3-5.5,3.7
		c-1.2,2.8-0.4,6.1,2,7.9c1,0.8,2.2,1.3,3.3,1.9c1,0.5,2.1,1,3.1,1.5c0.7,0.4,1.2,0.9,1.3,1.7c0.1,1.3-0.6,2.2-2,2.5
		c-2.1,0.5-4.1-0.3-5.4-2.1c-0.1-0.2-0.3-0.4-0.4-0.6C32.5,40.1,31.3,40.8,30,41.6z M13.2,42.1c0.7,1.5,1.8,2.7,3.2,3.5
		c1.6,0.9,3.3,1,5.1,0.8c2.8-0.2,4.9-1.9,5.6-4.6c0.2-0.8,0.3-1.7,0.3-2.5c0-5.2,0-10.5,0-15.7c0-0.5-0.2-0.6-0.6-0.5
		c-1.2,0-2.4,0-3.6,0c-0.7,0-0.7,0-0.7,0.7c0,5,0,10,0,15.1c0,0.3,0,0.7,0,1c-0.1,1.5-0.8,2.2-2.1,2.3c-1.1,0.1-2-0.3-2.6-1.2
		c-0.3-0.4-0.6-0.8-0.8-1.3C15.8,40.5,14.5,41.3,13.2,42.1z"/>
</g>
</svg>
