<?xml version="1.0" encoding="utf-8"?>
<!-- Generator: Adobe Illustrator 24.2.0, SVG Export Plug-In . SVG Version: 6.00 Build 0)  -->
<svg version="1.1" id="Layer_1" xmlns="http://www.w3.org/2000/svg" xmlns:xlink="http://www.w3.org/1999/xlink" x="0px" y="0px"
	 viewBox="0 0 50.4 50.4" style="enable-background:new 0 0 50.4 50.4;" xml:space="preserve">
<style type="text/css">
	.st0{fill:#128482;}
</style>
<g>
	<path class="st0" d="M0,22.7c1.3,0,2.1-1.6,2.2-4.4c0-2.3,0-4.6,0-6.9c0-1.2,0-2.3,0.1-3.5c0.2-4.4,1.2-6.8,3.2-7.5
		C7.2-0.3,9,0.1,10.8,0c0.3,0,0.3,0.3,0.3,0.8c0,0.4,0,0.8,0,1.1c0,9.6,0,19.2,0,28.8c0,0.5,0,1,0,1.5c0.1,2.2,0.4,3.1,1.4,3.6
		c0.4,0.2,0.5,0.6,0.5,1.5c-0.1,1-0.2,2-0.2,3c0,0.8-0.2,1.1-0.6,1c-0.5-0.2-1.1-0.2-1.6-0.5c-1.6-0.9-2.4-3.1-2.4-7
		c0-1.7,0-3.4,0-5.2c0-7.4,0-14.8,0-22.1c0-1-0.1-1.4-0.6-1.4C5.4,5.2,5,6.1,5,10.5c0,3,0.1,6-0.1,8.9c-0.1,2.1-0.4,3.9-1.2,5.2
		c-0.2,0.3-0.3,0.6,0,1C4.7,27.5,5,30,5,32.7c0,2.7,0,5.5,0,8.2c0,3.2,0.5,4.3,2,4.5c0.4,0,0.5,0.3,0.5,1.1c0,0.7,0,1.4,0,2.1
		c0,1.9,0,1.9-0.9,1.8c-0.4-0.1-0.7-0.1-1.1-0.3c-2.1-0.7-3.1-3.1-3.3-7.6c-0.1-2.8,0-5.6-0.1-8.4c0-0.7,0-1.3,0-2
		c-0.1-2.8-0.8-4.2-2.2-4.3C0,26.1,0,24.4,0,22.7z"/>
	<path class="st0" d="M50.4,27.7c-1.4,0.1-2.1,1.7-2.2,4.6c-0.1,3.4,0.1,6.9-0.1,10.3C48,47,47.1,49.1,45,50
		c-0.6,0.2-1.1,0.3-1.7,0.4c-0.3,0-0.5-0.2-0.5-0.9c0-0.3,0-0.6,0-0.9c0-1-0.1-2.1,0.1-2.8c0.2-0.8,0.8-0.4,1.2-0.6
		c0.8-0.5,1.2-1.5,1.3-3.6c0-2.5,0-5,0-7.5c0-1,0-2.1,0.1-3.1c0.1-2,0.5-3.7,1.2-5c0.2-0.3,0.4-0.6,0.1-1c-1.1-1.7-1.3-4.3-1.4-6.9
		c0-2.7,0-5.4,0-8c0-3.4-0.5-4.4-2.1-4.7c-0.4-0.1-0.5-0.3-0.5-1c0-1,0-2.1,0-3.1C42.9,0.3,43,0,43.3,0c0.8,0,1.5,0.2,2.3,0.6
		c1.6,1,2.4,3.1,2.5,6.9c0.1,2.9,0.1,5.9,0.1,8.8c0,0.8,0,1.5,0,2.3c0.1,2.6,0.9,4,2.1,4C50.4,24.4,50.4,26.1,50.4,27.7z"/>
	<path class="st0" d="M20.3,29.2c-1.2,0-2.5,0-3.7,0c-0.4,0-0.5,0.4-0.5,1.2c0.3,3,1.3,4.9,2.8,5.4c1.3,0.4,2.6,0.1,3.9-0.7
		c0.5-0.4,0.7,0,0.7,1c0,0.9,0.1,1.7,0.2,2.6c0.1,0.8,0,1.4-0.4,1.6c-1.9,1.2-3.8,1.6-5.8,0.7c-2.6-1.3-4.2-5.5-4.5-11.6
		c-0.1-3.3,0-6.4,0.7-9.5c1.4-6.3,5.1-8.9,8-5.8c1.6,1.7,2.4,4.6,2.7,8.2c0.2,1.8,0.2,3.7,0.2,5.5c0,1-0.2,1.3-0.6,1.3
		C22.7,29.1,21.5,29.1,20.3,29.2C20.3,29.1,20.3,29.1,20.3,29.2z M18.8,24.5c0.8,0,1.5,0,2.3,0c0.3,0,0.4-0.1,0.4-0.8
		c0-2.2-0.8-4.6-1.8-5.3c-1.7-1.1-3.2,1.1-3.6,5.1c-0.1,0.8,0,1,0.4,1C17.3,24.4,18.1,24.5,18.8,24.5z"/>
	<path class="st0" d="M28.7,41.4c-0.8,0.1-2-0.4-3.1-1.1c-0.4-0.3-0.5-0.7-0.4-1.5c0.1-1,0.2-2,0.3-3.1c0.1-0.9,0.2-1,0.6-0.7
		c1.3,1,2.7,1.5,4.1,1.1c0.8-0.3,1.2-0.8,1.3-2c0.1-1.3-0.2-2.3-0.8-3.1c-0.6-0.7-1.2-1.2-1.8-1.7c-0.4-0.3-0.8-0.7-1.2-1.1
		c-1.9-1.9-2.6-4.7-2.3-8.8c0.2-3.1,1.6-5.6,3.3-6.2c1.6-0.6,3.2-0.2,4.7,0.7c0.3,0.2,0.5,0.5,0.4,1.3c-0.1,1.1-0.2,2.1-0.3,3.2
		c-0.1,0.8-0.2,0.9-0.6,0.6c-1.1-0.8-2.2-1.1-3.3-0.8c-1,0.3-1.5,1.8-1.2,3.5c0.1,0.7,0.4,1.1,0.6,1.5c0.6,0.8,1.2,1.2,1.8,1.7
		c0.6,0.5,1.2,1.1,1.8,1.7c1.5,1.7,2,4.4,1.9,7.9c-0.2,3.3-1.1,5.2-2.5,6.2C31,41.3,30,41.4,28.7,41.4z"/>
	<path class="st0" d="M38.4,41.4c-1,0.1-2.2-0.4-3.3-1.2c-0.3-0.2-0.5-0.5-0.4-1.3c0.1-1,0.2-2,0.3-3.1c0.1-1,0.2-1.2,0.7-0.9
		c1.3,1,2.7,1.5,4.1,1.1c0.6-0.2,1.1-0.5,1.3-1.9c0.1-1.3-0.1-2.3-0.8-3.2c-0.6-0.7-1.2-1.2-1.8-1.7c-0.4-0.3-0.8-0.6-1.2-1
		c-1.8-1.8-2.6-4.6-2.4-8.3c0.2-3.6,1.4-6.1,3.3-6.8c1.6-0.6,3.2-0.2,4.8,0.7c0.3,0.2,0.4,0.4,0.3,1.2c-0.1,1.1-0.2,2.2-0.4,3.3
		C43,19,42.9,19.2,42.5,19c-1-0.8-2-1-3-0.8c-0.3,0-0.6,0.2-0.9,0.4c-0.9,0.8-1,2.9-0.3,4.2c0.4,0.7,0.9,1.1,1.4,1.5
		c0.8,0.7,1.6,1.3,2.4,2.2c1.7,1.9,2.4,5.2,1.9,9.1c-0.3,2.4-1,3.9-2,4.8C41.1,41.1,40.1,41.5,38.4,41.4z"/>
</g>
</svg>
