<?xml version="1.0" encoding="utf-8"?>
<!-- Generator: Adobe Illustrator 24.2.0, SVG Export Plug-In . SVG Version: 6.00 Build 0)  -->
<svg version="1.1" id="Layer_1" xmlns="http://www.w3.org/2000/svg" xmlns:xlink="http://www.w3.org/1999/xlink" x="0px" y="0px"
	 viewBox="0 0 151.2 151.2" style="enable-background:new 0 0 151.2 151.2;" xml:space="preserve">
<style type="text/css">
	.st0{fill:#128482;stroke:#128482;stroke-miterlimit:10;}
	.st1{fill:none;stroke:#128482;stroke-miterlimit:10;}
</style>
<g>
	<path class="st0" d="M26.7,86.4c0.4-4.3,0.9-8.6,1.3-12.9c2-19.9,3.8-40,7-59.4c0.6-3.7,1.3-7.2,2.4-10.5C38.2,1.3,39.2,0,40.8,0
		c6.9,0.2,13.8,0.1,20.6,0.1c-1,1.5-1.7,3.5-2.2,5.8c-1.7,6.8-2.7,14.1-3.6,21.5c-1.7,12.6-2.9,25.4-4.2,38.1
		c-0.8,8.8-1.6,17.6-2.5,26.3c-1.1,11.4-2.3,22.7-3.8,33.9c-1,7.2-1.9,14.5-3.9,21.1c-0.2,0.7-0.4,1.3-0.7,1.9
		c-0.7,1.7-1.5,2.5-2.7,2.5c-6.6-0.1-13.3-0.1-19.9-0.1c-0.3,0-0.7-0.1-1-0.1c0.8-1.9,1.7-3.7,2.2-6c0.9-3.8,1.6-7.7,2.2-11.7
		c1.9-12.3,3.2-24.8,4.5-37.4C26.3,92.8,26.7,89.7,26.7,86.4z"/>
	<path class="st0" d="M75.3,79.7c1.5-16.1,3-32.3,5-48.2c1-8.5,2.1-17,4-24.9c0.3-1.2,0.6-2.3,1-3.4c0.7-2,1.6-3.2,3-3.2
		c7,0.2,13.9,0.1,20.9,0.1c-1,1.4-1.7,3.1-2.3,5.3c-0.7,2.7-1.2,5.4-1.7,8.2c-1.8,10.5-3.1,21.4-4.2,32.2c-0.7,6.5-1.4,13-1.9,19.6
		c-0.6,4.3-0.8,8.7-1.3,13c-2,20-3.7,40.1-7,59.5c-0.6,3.8-1.4,7.5-2.6,10.7c-0.6,1.7-1.4,2.5-2.5,2.5c-6.6-0.1-13.3,0-19.9-0.1
		c-0.3,0-0.7,0.2-1-0.2c1-1.6,1.6-3.7,2.2-5.9c0.9-3.9,1.6-7.9,2.3-12.1c1.8-11.9,3.1-24.1,4.4-36.3C74.2,91,74.8,85.4,75.3,79.7z"
		/>
	<path class="st1" d="M99.1,65.5c0.4-6.6,1.2-13.1,1.9-19.6c1.2-10.9,2.4-21.7,4.2-32.2c0.5-2.8,1-5.6,1.7-8.2
		c0.5-2.1,1.3-3.9,2.3-5.3c2.3-0.8,3.3,2.2,4.2,5.4c1.5,5.3,2.3,11.1,3.2,16.9c1.9,13.1,3.2,26.4,4.5,39.8
		c0.9,8.9,1.8,17.7,2.5,26.7c0,0.3,0.1,0.5,0.2,0.8c-1.2,5.5-2,11.2-2.6,17c-0.9,8.1-1.4,16.4-2.6,24.4c-1.1,7.5-2.1,15.3-5.9,19.8
		c-2.1,0.2-2.9-2.9-3.6-5.7c-1.5-5.4-2.3-11.3-3.2-17.1c-1.8-12.7-3-25.6-4.4-38.4c-0.8-7.9-1.5-15.8-2.3-23.7
		C99.3,65.8,99.2,65.6,99.1,65.5z"/>
	<path class="st1" d="M75.3,79.7c-0.6,5.7-1.1,11.3-1.7,17c-1.3,12.2-2.6,24.4-4.4,36.3c-0.6,4.1-1.3,8.2-2.3,12.1
		c-0.5,2.2-1.2,4.3-2.2,5.9c-1.3,0.4-2-1.2-2.6-2.9c-1.3-3.6-2.1-7.7-2.8-11.9c-1.8-10.9-3-22.1-4.3-33.3
		c-0.9-8.6-1.7-17.2-2.6-25.7c-0.4-3.6-0.7-7.3-1-10.9c0-0.4,0-0.7-0.3-0.7c1.3-12.8,2.5-25.5,4.2-38.1c1-7.3,1.9-14.6,3.6-21.5
		c0.6-2.2,1.2-4.3,2.2-5.8c2.2-0.8,3.4,1.9,4.3,5.1c1.8,6.4,2.7,13.4,3.7,20.4C71,38,72.2,50.5,73.5,62.9c0.6,5.3,1,10.7,1.5,16.1
		C75.1,79.4,75.1,79.7,75.3,79.7z"/>
	<path class="st0" d="M112.7,151c3.8-4.6,4.7-12.3,5.9-19.8c1.2-8,1.7-16.3,2.6-24.4c0.6-5.8,1.4-11.6,2.6-17
		c0.4-0.1,0.4-0.8,0.5-1.3c1.4-4.9,3.4-7.5,6.3-7.4c6.5,0.2,13,0,19.5,0c0.3,0,0.7,0,1,0c0,0.5-0.1,0.6-0.3,0.7
		c-4.6,3-7.3,9.6-8.7,18.3c-1,6.3-1.5,12.8-1.9,19.3c-0.4,6.6-0.6,13.3-1.8,19.7c-0.8,4.1-1.8,7.9-3.4,11c-0.3,0.6-0.7,1.1-1.2,1.1
		c-6.9,0-13.9,0-20.8,0C113,151.1,112.8,151,112.7,151z"/>
	<path class="st1" d="M26.7,86.4c0,3.2-0.4,6.3-0.8,9.5c-1.3,12.6-2.7,25.1-4.5,37.4c-0.6,4-1.3,7.9-2.2,11.7
		c-0.6,2.3-1.4,4.1-2.2,6c-1.8-0.6-2.5-3.5-3.1-6.3c-0.9-3.9-1.4-8.1-1.9-12.2c-0.9-7.6-1.3-15.3-2.4-22.7c-1-7.1-2.1-14.1-4.4-20.1
		c-1-2.7-1.8-5.2-5.2-8.4c0.4-0.1,0.7-0.1,1-0.1c6.6,0,13.2,0,19.8,0c2.3,0,4.3,1.4,5.7,5.1C26.5,86.4,26.6,86.4,26.7,86.4z"/>
</g>
</svg>
