<?xml version="1.0" encoding="utf-8"?>
<!-- Generator: Adobe Illustrator 24.2.0, SVG Export Plug-In . SVG Version: 6.00 Build 0)  -->
<svg version="1.1" id="Layer_1" xmlns="http://www.w3.org/2000/svg" xmlns:xlink="http://www.w3.org/1999/xlink" x="0px" y="0px"
	 viewBox="0 0 119.1 119.1" style="enable-background:new 0 0 119.1 119.1;" xml:space="preserve">
<style type="text/css">
	.st0{fill:#3b2f2f;}
</style>
<g>
	<path class="st0" d="M56.4,119.1c0.3-0.5-0.2-0.5-0.5-0.7c-5.9-3-11.7-6.1-17.6-9.1c-0.6-0.3-1.6-0.5-1.5-1.3
		c0.1-0.8,1.1-0.8,1.7-1c1.2-0.5,2.5-0.6,3.5-1.3c2.6-1.8,4.8-1.3,7.2,0.3c2.7,1.7,5.7,3.1,8.6,4.6c1.2,0.6,2.1,0.6,3.3,0
		c15.7-8.1,31.5-16.2,47.2-24.3c1.3-0.7,1.7-1.4,1.7-2.7c0-16.1,0-32.1,0-48.2c0-1.4-0.5-2.2-1.8-2.9c-15.6-8-31.3-16-46.9-24
		c-1.3-0.7-2.4-0.7-3.7,0c-15.6,8-31.2,16-46.9,24C9.4,33.2,9,34,9,35.4c0,16.1,0,32.1,0,48.2c0,1.3,0.4,2.1,1.7,2.7
		c4,2,8,4.1,12,6.1c1.2,0.6,2.4,1,3.7,1.3c4.9,0.9,8.5-1.6,8.5-6c0-15.8,0-31.6,0-47.4c0-2.9,0.1-3,3.4-3c6.4,0,5.9-0.7,5.9,5.2
		c0,14.8,0,29.6,0,44.4c0,1.6-0.1,3.3-0.4,4.9c-1.1,6-5.8,9.7-12.6,10.1c-4.7,0.3-9-0.8-13.1-2.8c-4.2-2.1-8.4-4.3-12.6-6.4
		c-1.9-1-3.3-2.4-4.4-4.2c-0.2-0.4,0-1.4-1.1-0.9c0-18.7,0-37.3,0-56c0.4,0.2,0.6,0,0.7-0.3c1.1-3,3.7-4.6,6.6-6.1
		c15.7-8,31.4-16.1,47-24.2C54.8,0.9,55.8,1,55.5,0c2.7,0,5.4,0,8.1,0c-0.4,0.7,0.4,0.7,0.8,0.9c16.1,8.3,32.1,16.5,48.2,24.7
		c2.4,1.2,4.5,2.6,5.7,4.9c0.1,0.3,0.3,0.8,0.9,0.5c0,19,0,38.1,0,57.1c-0.9-0.3-0.9,0.5-1.1,0.8c-1,1.7-2.4,3-4.3,3.9
		c-16.5,8.5-33.1,16.9-49.6,25.4c-0.3,0.2-1,0.2-0.5,0.8C61.2,119.1,58.8,119.1,56.4,119.1z"/>
	<path class="st0" d="M74.4,84.3c-4.8,0-9.5-0.4-14.1-1.8c-7.2-2.3-11.2-7-11.5-13.2c-0.1-1.8,0.7-2.6,2.7-2.5c0.2,0,0.4,0,0.7,0
		c1.6,0,3.4-0.2,4.9,0.2c1.9,0.5,1.2,2.5,1.8,3.8c1,2.1,2.5,3.7,4.9,4.4c7.1,2,14.2,2,21.4,0.2c1.1-0.3,2-0.8,2.8-1.6
		c3-2.7,2.1-6.8-1.8-8.2c-3.6-1.3-7.5-1.6-11.4-2c-4.4-0.5-8.9-0.8-13.2-1.9c-7.1-1.9-10.6-5.2-10.9-10.6c-0.3-6.4,2.9-11,9.7-13.3
		c9-2.9,18.2-2.8,27.1,0.2c6.4,2.1,9.3,6.7,10,12.6c0.2,1.3-0.4,2-2,2c-0.5,0-1.1,0-1.6,0c-3.3,0.4-5.9,0-6.6-3.7
		c-0.5-2.1-2.6-3.6-5-4.2c-5.8-1.5-11.6-1.5-17.4-0.1c-1.1,0.3-2.1,0.8-2.9,1.5c-2.8,2.4-2,6.2,1.7,7.3c4.4,1.4,9,1.7,13.6,2.2
		c4,0.5,8,1,11.8,2.1c5.3,1.4,9.5,4,10.2,9.3c0.7,5.7-1.1,10.5-6.8,13.7C87,83.8,80.7,84.3,74.4,84.3z"/>
</g>
</svg>
