<?xml version="1.0" encoding="utf-8"?>
<!-- Generator: Adobe Illustrator 24.2.0, SVG Export Plug-In . SVG Version: 6.00 Build 0)  -->
<svg version="1.1" id="Layer_1" xmlns="http://www.w3.org/2000/svg" xmlns:xlink="http://www.w3.org/1999/xlink" x="0px" y="0px"
	 viewBox="0 0 151.2 151.2" style="enable-background:new 0 0 151.2 151.2;" xml:space="preserve">
<style type="text/css">
	.st0{fill:#128482;}
</style>
<g>
	<path class="st0" d="M0,81.4c0-3.8,0-7.7,0-11.5c1.7-14.5,5.9-26.1,12-35c3.5-5.1,7.3-9.9,11.3-13.7c15-14.5,31.2-20.1,47.9-21
		c18.6-1,36.8,3.6,53.9,18.5c12.1,10.5,22.6,24.6,26,51.2c0,3.8,0,7.7,0,11.5c-1.7,14.5-5.9,26.1-12,35c-3.4,5-7.1,9.7-11,13.4
		c-15.3,14.8-31.9,20.5-48.9,21.3c-18.4,0.9-36.4-3.8-53.3-18.5C13.9,122,3.5,108,0,81.4z M101.6,97.9c3.2,0,6.4,0.2,9.5,0
		c8.5-0.5,14.9-10.1,17-25c2.4-17.4-1.5-29.1-10.7-30.6c-5.7-0.9-11.4-0.4-17.1-0.2c-0.7,0-1.8,2.1-2,3.6c-1,7.6-1.7,15.4-2.5,23.1
		c-1.7,16.2-3.3,32.4-5,49.4c2.2,0,4.1-0.3,6,0.1c2.4,0.5,3.1-1.7,3.4-5.7C100.5,107.8,101.1,103.1,101.6,97.9z M33.8,97.8
		c3.3,0,6.6,0.2,9.8,0c8-0.6,14.2-9.6,16.5-23.7c2.7-17.4-0.8-29.6-9.9-31.6c-6-1.3-12.1-0.6-18.1-0.4c-0.6,0-1.6,2.5-1.8,4.1
		c-1,7.9-1.7,15.8-2.5,23.8c-1.6,15.8-3.2,31.6-4.8,47.4c8.4,2.7,8.5,2.6,10-12.4C33.2,103,33.5,100.9,33.8,97.8z M80.4,97.5
		c3.3,0,6,0,8.8,0c1.2-12.3,2.5-24.2,3.6-36.1c1-11-1.1-16.8-6.8-18.4c-4-1-8-1.1-12.3-1.6c0.5-6.5,1.1-12.8,1.6-19.1
		c-8.3-1.2-8.4-1.3-9.9,13c-2.2,20.6-4.2,41.3-6.3,62.4c3,0,5.8,0,8.6,0C68.9,87.1,70,76.9,71,66.7c1.3-12.7,1.4-12.7,8.1-12.3
		c4.5,0.2,5.4,2.4,4.6,10.6C82.7,75.7,81.6,86.3,80.4,97.5z"/>
	<path class="st0" d="M102.8,85.8c1-10,1.9-19.2,2.9-28.2c0.1-1.2,0.9-3.1,1.3-3.1c3.3,0.2,6.7,0.4,9.9,1.4c0.9,0.3,1.9,2.9,2.3,4.8
		c1.8,8.8-2,22.4-6.9,24.1C109.4,85.9,106.2,85.5,102.8,85.8z"/>
	<path class="st0" d="M38.2,54.6c3.3,0,6.1-0.4,8.9,0.1c3.5,0.6,4.8,4.1,4.7,10.8c-0.3,13-3.6,19.4-10.4,20.1c-1.9,0.2-3.8,0-6.2,0
		C36.2,75,37.2,64.9,38.2,54.6z"/>
</g>
</svg>
