<?xml version="1.0" encoding="utf-8"?>
<!-- Generator: Adobe Illustrator 24.2.0, SVG Export Plug-In . SVG Version: 6.00 Build 0)  -->
<svg version="1.1" id="Layer_1" xmlns="http://www.w3.org/2000/svg" xmlns:xlink="http://www.w3.org/1999/xlink" x="0px" y="0px"
	 viewBox="0 0 50.4 50.4" style="enable-background:new 0 0 50.4 50.4;" xml:space="preserve">
<style type="text/css">
	.st0{fill:#128482;}
</style>
<g>
	<path class="st0" d="M38.5-0.1c0.5,0.2,1.1,0.3,1.6,0.4C43.3,1,46,2.5,48.2,4.8c1.2,1.3,1.8,2.8,1.8,4.5c0.2,4.2-0.9,8.2-2.5,12
		c-0.9,2.3-2.1,4.5-3.2,6.7c-0.1,0.3-0.3,0.6-0.5,1c0.9-0.2,1.7-0.3,2.4-0.4c0.3-0.1,0.6-0.1,1-0.2c1.2-0.1,2.2,0.3,2.8,1.3
		c0.5,1.1,0.3,2.2-0.5,3.1c-1.4,1.6-3.2,2.6-5.3,3c-1.3,0.3-2.7,0.4-4.3,0.6c-0.1,1.4-0.2,3-0.4,4.5c-0.2,1.3-0.4,2.6-0.8,3.8
		c-0.9,2.9-3,4.7-6,5.4c-0.5,0.1-1,0.3-1.5,0.4c-0.8,0-1.6,0-2.4,0c-3.8-1.2-4.7-4.2-5.2-7.5c-0.2-1.7-0.2-3.5-0.4-5.3
		c-3.1,1-6.1,1-8.7-1.1c-3.2,1.7-5.4,1.4-7.4-1.6c-1.4-2.1-2.5-4.4-3.4-6.7C1.7,23.7,0.5,19,0,14.3c-0.2-1.9,0-3.9,0.4-5.8
		c1-4.7,4.5-7.4,9.4-7.9c3-0.3,6,0.3,9,1.1c0.5,0.2,1.2,0.1,1.6-0.1c2.5-1.2,5.1-1.4,7.8-1c2,0.3,3.8-0.4,5.7-0.7
		C35.5-0.1,37-0.1,38.5-0.1z M41.4,29.9c0.2-0.4,0.4-0.7,0.5-0.9c1.5-2.9,3.1-5.8,4.4-8.8c1.2-2.9,2-6,2.2-9.1
		c0.2-2.5-0.2-4.7-2.3-6.3c-1.5-1.1-3-2.1-4.7-2.8c-3.4-1.3-7-1-10.6-0.2c-0.5,0.2-1.2,0.2-1.7,0.1c-2.9-0.4-5.7-0.4-8.4,1
		c-0.4,0.2-1.1,0.3-1.5,0.1c-2.6-0.7-5.2-1.3-7.8-1.2C5.4,2,1.8,5.3,1.5,11c-0.1,2.3,0.2,4.7,0.6,7c0.8,4.6,2.1,9.1,4.2,13.3
		C7,32.6,7.9,33.9,8.9,35c1.4,1.5,3.2,1.4,4.7,0c0.3-0.3,0.6-0.6,0.8-1c1-1.2,2-2.3,3.1-3.4c0.2-0.2,0.6-0.4,0.9-0.4
		c0.8,0.2,1.5,0.5,2.3,0.7c-0.5,1-1.3,1.6-2.4,1.9c-0.8,0.2-1.6,0.4-2.4,0.7c-1.2,0.5-1.3,1.7-0.2,2.3c0.8,0.5,1.7,0.8,2.6,0.9
		c2.1,0.4,4-0.1,5.8-1.6c0,0.7,0,1,0,1.4c0.1,2.5,0.1,4.9,0.4,7.4c0.2,2.3,1.2,4.2,3.6,5c3.7,1.3,8.3-1.1,9.1-4.9
		c0.4-1.8,0.6-3.5,0.8-5.3c0.2-1.4,0.3-2.7,0.5-4.2c0.3,0.1,0.5,0.1,0.7,0.1c3.1,0.3,6.1-0.3,8.5-2.4c0.5-0.5,1-1,0.6-1.8
		c-0.4-0.8-1.1-0.7-1.8-0.6c-1.2,0.1-2.5,0.3-3.7,0.4C42.6,30.2,42.1,30,41.4,29.9z"/>
	<path class="st0" d="M16.4,14.1c0.4-6.7,4.1-11,10-10.8c4.4,0.2,8.1,1.9,10.8,5.4c1,1.3,1.7,2.7,2.7,4.2c-1.1,0.1-1.9,0.1-2.6,0.2
		c-2.7,0.5-4,2.3-3.5,4.9c0.3,1.4,0.7,2.9,1.3,4.2c1.2,2.6,2.7,5.1,4.1,7.6c-1.4,0.6-1.7,1.9-1.8,3.4c-0.3,3.4-0.8,6.8-1.3,10.2
		c-0.5,3.1-3.9,5.1-7,4.2c-1.6-0.5-2.4-1.8-2.6-3.3C26,41.7,26,39.4,25.9,37c0-1.3,0-2.6,0-3.9c0-2.2-0.8-3.2-3.1-3.7
		c0.3-0.9,0.6-1.9,1-2.7c1.8-3.5,1.7-7.1,0.7-10.8c-0.5-2.1-2.3-3.1-4.5-2.8C18.8,13.3,17.6,13.7,16.4,14.1z"/>
	<path class="st0" d="M18.4,4.5C15,8.6,14.2,13.1,14.5,18c0.1,1.3,0,2.6-0.1,3.9c-0.4,2.8,0.2,5.2,2.3,7.3c-1.5,1.6-2.9,3.3-4.5,4.8
		c-0.6,0.7-1.5,0.6-2.1-0.1c-0.7-0.8-1.5-1.7-2-2.6C6.1,27.8,5,23.9,4.1,20c-0.5-2.6-1-5.3-1.1-8c-0.1-1.4,0.3-2.8,0.8-4.2
		c0.7-2.2,2.4-3.6,4.8-4.1C11.9,3,15.1,3.6,18.4,4.5z"/>
	<path class="st0" d="M33.1,3.2C37.3,1.7,44,3.8,46.4,7.3c0.9,1.4,0.7,2.9,0.5,4.4c-0.7,5.9-3,11.2-6.1,16.3c0,0.1-0.1,0.1-0.2,0.2
		c1.2-2.2,1-4.4,0.8-6.7c-0.1-2,0-3.9,0.2-5.9c0.1-1.2,0-2.4-0.4-3.5c-1.5-3.6-3.9-6.4-7.4-8.4C33.5,3.5,33.3,3.3,33.1,3.2z"/>
	<path class="st0" d="M23.8,21.3c-0.3,1.3-0.7,2.8-1.2,4.3c-0.3,1-0.8,1.9-1.1,2.8c-0.2,0.9-0.7,1-1.5,0.8c-2.6-0.7-4.2-3.4-4-6.2
		c0.2-1.9,0.2-3.8,0.2-5.6c0-0.8,0.1-1.3,0.9-1.5c1-0.4,2-0.8,3.1-1c1.6-0.3,2.5,0.4,2.9,2C23.3,18.1,23.5,19.5,23.8,21.3z M20.9,15
		c-0.5,0.5-1,0.7-1.1,1c-0.2,0.5,0.8,1.4,1.5,1.2c0.5-0.2,0.8-0.7,1.3-1C22,15.9,21.5,15.5,20.9,15z"/>
	<path class="st0" d="M39.3,26.4c-1.4-2.8-3.2-5.4-3.8-8.5c-0.2-1-0.3-2.1,0.6-2.8c1-0.8,2.3-0.7,3.5-0.6c0.1,0,0.3,0.5,0.3,0.7
		c-0.5,2.7-0.3,5.3-0.1,8c0.1,1.1-0.1,2.1-0.2,3.2C39.5,26.4,39.4,26.4,39.3,26.4z M37.8,14.7c-0.6,0.5-1.1,0.8-1.5,1.1
		c0.4,0.3,0.8,0.9,1.1,0.8c0.5-0.1,0.9-0.6,1.4-1C38.5,15.3,38.3,15.1,37.8,14.7z"/>
	<path class="st0" d="M17.1,34.6c0.5-0.2,0.7-0.3,1-0.3c1.7-0.3,3-1,4-2.4c0.3-0.5,0.7-1.1,1.5-0.5c0.6,0.5,0.6,1.3,0,2
		C22.3,35.1,19.6,35.7,17.1,34.6z"/>
	<path class="st0" d="M46.1,32c-1,0.4-2,0.8-3.1,1c-0.9,0.2-1.9,0.2-2.9,0.2c-0.7,0-1.1-0.2-0.9-1c0.1-0.7,0.8-1.3,1.4-1
		c1.7,0.9,3.4,0.7,5.2,0.5c0.1,0,0.1,0.1,0.2,0.1C46.1,31.8,46.1,31.9,46.1,32z"/>
</g>
</svg>
