<?xml version="1.0" encoding="utf-8"?>
<!-- Generator: Adobe Illustrator 24.2.0, SVG Export Plug-In . SVG Version: 6.00 Build 0)  -->
<svg version="1.1" id="Layer_1" xmlns="http://www.w3.org/2000/svg" xmlns:xlink="http://www.w3.org/1999/xlink" x="0px" y="0px"
	 viewBox="0 0 151.2 151.2" style="enable-background:new 0 0 151.2 151.2;" xml:space="preserve">
<style type="text/css">
	.st0{fill:#128482;}
</style>
<g>
	<path class="st0" d="M0,82.7c0-4.8,0-9.6,0-14.4c0.5-0.1,0.3-0.5,0.4-0.8c0.4-4.5,1.3-8.9,3-13.1c1.7-4.4,4.3-8.1,8-11
		c4.1-3.2,8.8-4.2,13.9-4.2c16.4,0,32.8,0,49.2,0c0.3,0,0.6,0,0.9,0c0.5,0,0.7-0.2,0.7-0.7c0-1,0-2,0-3.1c0-1.6,0.2-1.4-1.4-1.4
		c-11.4,0-22.8,0-34.1,0c-1,0-1.3-0.2-1.3-1.2c0-5.5,0-11.1,0-16.6c0-0.8,0.1-1.6,0.3-2.3c1-3.6,3.4-6.2,6.6-8
		C52.6,2,59.9,0.7,67.3,0.4c0.3,0,0.8,0.3,0.8-0.4c5.1,0,10.1,0,15.2,0c0,0.4,0.3,0.3,0.5,0.3c2.4,0.2,4.7,0.5,7.1,1
		c5.3,1.1,10.3,2.6,14.8,5.8c2.4,1.7,4.3,3.8,5.6,6.5c1.1,2.3,1.3,4.7,1.2,7.3c-0.1,10.6,0,21.1,0,31.7c0,1.5,0,3.1-0.2,4.6
		c-0.9,5.7-3.6,10.1-8.7,13c-3.7,2.1-7.6,3-11.8,3c-11.6,0-23.2,0-34.8,0c-2.1,0-4.2,0.1-6.3,0.4c-4.7,0.8-8.7,2.9-11.6,6.7
		c-3.2,4.1-4.5,8.9-4.6,14.1c-0.1,5.7,0,11.5,0,17.2c0,1-0.3,1.2-1.2,1.2c-3.8-0.1-7.5,0-11.3,0c-3,0-5.7-0.8-8.3-2.2
		c-4.8-2.7-7.8-7-9.9-12c-2-4.8-2.9-9.9-3.4-15.1C0.3,83.2,0.5,82.8,0,82.7z M61.7,18.2c0-3.6-2.9-6.6-6.6-6.6c-3.7,0-6.6,3-6.6,6.6
		c0,3.7,3,6.6,6.7,6.6C58.8,24.8,61.7,21.9,61.7,18.2z"/>
	<path class="st0" d="M81.1,151.2c-3,0-6,0-9.1,0c0.1-0.6-0.4-0.3-0.6-0.3c-1.3-0.1-2.6-0.1-3.9-0.3c-5.9-0.5-11.8-1.6-17.2-4.1
		c-3.7-1.8-7-4.1-9.1-7.8c-1.6-2.7-2-5.5-2-8.6c0.2-7.6,0-15.2,0.1-22.7c0-4-0.2-8,0.1-12c0.4-5.3,2.4-9.8,6.7-13.1
		c4.1-3.1,8.8-4.4,13.9-4.5c11.9-0.1,23.9,0,35.8,0c1.8,0,3.6-0.1,5.3-0.4c3.8-0.7,7.2-2.1,9.9-4.8c4.1-4,6-9,6.3-14.6
		c0.3-6.3,0.1-12.6,0.1-18.9c0-0.7,0.2-0.9,0.9-0.9c4,0,8.1,0,12.1,0c0.7,0,1.4,0.1,2,0.2c4,0.6,7.3,2.7,10.2,5.5
		c2.1,2.1,3.7,4.6,4.9,7.3c1.8,4,3,8.1,3.4,12.5c0,0.2,0,0.5,0.4,0.3c0,7.8,0,15.6,0,23.4c-0.3,0.1-0.3,0.1-0.4,0.5
		c-0.5,2.5-1.1,5.1-2,7.5c-1.7,4.6-4.1,8.8-8.1,11.9c-4.1,3.3-8.9,4.5-14.1,4.5c-16.6-0.1-33.3,0-49.9,0c-0.1,0-0.3,0-0.4,0
		c-0.5-0.1-0.6,0.2-0.6,0.6c0,1.1,0.1,2.3,0,3.4c-0.1,0.9,0.2,1.1,1.1,1.1c11.5,0,23.1,0,34.6,0c0.8,0,1.1,0.2,1.1,1
		c0,5.6,0,11.2,0,16.8c0,0.8-0.1,1.5-0.3,2.2c-1,3.7-3.5,6.2-6.7,8.2c-5,3.1-10.6,4.3-16.3,5c-2.5,0.3-5,0.6-7.5,0.6
		C81.6,150.9,81.1,150.6,81.1,151.2z M90.1,132.7c0,3.7,3,6.7,6.6,6.6c3.6,0,6.6-3,6.6-6.7c0-3.6-3-6.5-6.6-6.6
		C93.1,126.1,90.1,129,90.1,132.7z"/>
</g>
</svg>
