<?xml version="1.0" encoding="utf-8"?>
<!-- Generator: Adobe Illustrator 24.2.0, SVG Export Plug-In . SVG Version: 6.00 Build 0)  -->
<svg version="1.1" id="Layer_1" xmlns="http://www.w3.org/2000/svg" xmlns:xlink="http://www.w3.org/1999/xlink" x="0px" y="0px"
	 viewBox="0 0 119.1 119.1" style="enable-background:new 0 0 119.1 119.1;" xml:space="preserve">
<style type="text/css">
	.st0{fill:#3b2f2f;}
</style>
<g>
	<path class="st0" d="M94.3,82.5c0.3,2.2,0.8,4.8,1.1,7.4c0.8,6.4,1,12.7-0.6,19c-0.2,0.9-0.5,1.8-0.9,2.7
		c-2.3,5.7-6.7,8.3-12.3,7.3c-5.3-1-9.9-3.8-14.2-7.2c-2.7-2.2-5.2-4.6-7.9-7c-1.5,1.4-3.1,3-4.7,4.4c-4.6,4.1-9.4,7.8-15.2,9.3
		c-2.1,0.5-4.4,0.7-6.6,0.4c-3.4-0.4-5.7-2.9-7.2-6.2c-2-4.1-2.5-8.6-2.6-13.2c-0.1-5.6,0.6-11.1,1.6-16.5c0-0.2,0.1-0.5,0.1-0.8
		c-1.6-0.6-3.2-1.3-4.8-1.9C15,78,10,75.2,5.7,71.1c-1.2-1.2-2.3-2.5-3.2-3.9c-3.3-5-3.3-10.2,0-15.2c2.2-3.4,5.2-5.9,8.4-8
		c4-2.7,8.3-4.7,12.7-6.3c0.4-0.1,0.8-0.3,1.2-0.5c-0.4-2.8-0.9-5.6-1.2-8.4c-0.7-6.5-0.9-12.9,0.9-19.2c2-7,6.3-10.2,12.8-9.3
		c2,0.3,4,1,5.9,1.8c5.7,2.6,10.5,6.7,15.1,11.2c0.4,0.4,0.8,0.8,1.2,1.2c0.5-0.4,0.9-0.9,1.3-1.3c5-5,10.4-9.5,16.8-12
		c1.7-0.6,3.5-1.1,5.2-1.2c4.6-0.4,8.2,1.8,10.4,6.4c1.9,4.1,2.4,8.5,2.5,13.1c0.1,5.7-0.6,11.3-1.6,16.8c0,0.2-0.1,0.4-0.1,0.7
		c0.7,0.3,1.4,0.6,2.1,0.8c6.2,2.4,12.1,5.2,17.1,10.1c1.4,1.4,2.7,3,3.7,4.7c2.8,4.5,2.7,9.2,0,13.8c-2.2,3.8-5.3,6.6-8.9,8.7
		C103.7,77.8,99.1,80,94.3,82.5z M59.5,81.5c3.3-0.2,6.6-0.3,10-0.6c0.6,0,1.3-0.5,1.6-1.1c3.8-6.1,7.1-12.6,9.9-19.4
		c0.2-0.5,0.2-1.3,0-1.8c-2.8-6.9-6.2-13.4-10.1-19.6c-0.3-0.4-0.9-0.8-1.3-0.8c-6.7-0.1-13.4-0.1-20,0c-0.5,0-1.2,0.5-1.5,1
		c-3.8,6.2-7.1,12.7-10,19.5c-0.2,0.5-0.2,1.3,0,1.8c2.9,6.9,6.2,13.4,10.1,19.6c0.3,0.4,0.9,0.8,1.3,0.8
		C52.8,81.2,56.1,81.4,59.5,81.5z M92.8,42.9c-0.1,0.3-0.2,0.6-0.3,0.8c-1.6,5-3.3,10-4.8,15c-0.2,0.6-0.1,1.3,0.1,1.9
		c1.5,4.8,3.2,9.6,4.7,14.4c0.1,0.4,0.3,0.8,0.4,1.2c5.8-2,11.3-4.5,16-8.7c1.5-1.3,2.8-2.9,3.9-4.5c1.5-2.2,1.5-4.6,0-6.8
		c-1.2-1.7-2.5-3.3-4-4.6C104,47.4,98.5,45,92.8,42.9z M30.2,83.7c-0.1,0.3-0.1,0.5-0.2,0.7c-1.1,5.5-1.8,11-1.4,16.7
		c0.2,2.8,0.8,5.7,1.7,8.3c1,3,3.1,4.2,6,3.6c1.6-0.3,3.3-0.7,4.8-1.4c5.5-2.5,10.1-6.6,14.4-11.1c0-0.1,0-0.2,0,0
		c-3.2-4.5-6.4-8.9-9.6-13.2c-0.3-0.4-0.9-0.6-1.4-0.7c-2.3-0.4-4.5-0.7-6.8-1.1C35.2,84.9,32.8,84.3,30.2,83.7z M63.3,18.8
		c0.2,0.3,0.4,0.5,0.5,0.7c3,4.1,6,8.2,9.1,12.2c0.4,0.5,1.2,0.9,1.8,1c2.2,0.4,4.5,0.7,6.7,1.1c2.5,0.5,4.9,1.1,7.4,1.6
		c0.1-0.3,0.2-0.5,0.2-0.8c1.1-5.6,1.8-11.3,1.3-17c-0.2-2.7-0.8-5.4-1.7-7.9c-1.1-3.1-3.3-4.3-6.2-3.7c-1.6,0.3-3.2,0.8-4.8,1.5
		C72.3,10.1,67.7,14.3,63.3,18.8z M26.1,42.9c-2.4,1-4.8,1.9-7.1,3c-4.1,2-8,4.3-11.1,8c-3.5,4-3.5,7.4,0,11.3
		c5.1,5.7,11.6,8.5,18.3,11c0.2-0.6,0.3-1,0.5-1.5c1-3.1,1.9-6.2,2.9-9.4c0.6-1.9,1.9-3.8,1.9-5.7c0-2-1.3-3.9-1.9-5.9
		C28.5,50.3,27.3,46.7,26.1,42.9z M89,83.6c-2.6,0.6-4.9,1.2-7.3,1.6c-2.3,0.5-4.7,0.7-7.1,1.2c-0.7,0.1-1.4,0.6-1.9,1.1
		c-2.9,3.8-5.7,7.7-8.6,11.6c-0.3,0.4-0.5,0.7-0.8,1.1c1.5,1.4,2.9,2.8,4.3,4.1c3.8,3.3,7.7,6.3,12.3,7.9c5.7,1.9,8.7,0,9.9-6.6
		c1-5,0.7-10.1,0.1-15.1C89.8,88.3,89.4,86,89,83.6z M30,35.4c0.3,0,0.4,0,0.6,0c4.8-0.9,9.6-1.8,14.3-2.8c0.5-0.1,1-0.6,1.3-1
		c2-2.8,4-5.7,6.1-8.5c1-1.4,2.2-2.8,3.5-4.4c-2.6-2.3-5.1-4.6-7.6-6.7c-3.1-2.5-6.3-4.5-10-5.5c-4.9-1.3-7.4,0.4-8.7,5.9
		c0,0,0,0.1,0,0.1c-1.2,5.2-1,10.5-0.4,15.7C29.2,30.6,29.7,33,30,35.4z M59.4,22.9c-2.3,3.1-4.5,5.9-6.7,8.9c4.7,0,9,0,13.6,0
		C63.9,28.7,61.8,25.9,59.4,22.9z M59.6,96.2c2.3-3,4.4-5.8,6.7-8.8c-4.6,0-8.9,0-13.5,0C55.1,90.5,57.3,93.3,59.6,96.2z M77.5,80.1
		c3.5-0.8,6.7-1.5,10.1-2.2c-1.2-3.8-2.2-7.3-3.4-11C82,71.3,79.9,75.5,77.5,80.1z M34.7,52.3c2.3-4.5,4.4-8.7,6.7-13.2
		c-3.5,0.7-6.7,1.4-10.1,2.2C32.5,45,33.6,48.5,34.7,52.3z M87.6,41.3c-3.4-0.7-6.6-1.4-10.1-2.2c2.3,4.5,4.5,8.7,6.8,13.1
		C85.4,48.5,86.5,45,87.6,41.3z M31.4,77.9c3.5,0.7,6.7,1.4,10.1,2.2c-2.3-4.5-4.5-8.7-6.8-13.1C33.6,70.6,32.5,74.1,31.4,77.9z"/>
	<path class="st0" d="M52.7,31.8c2.3-3,4.4-5.8,6.7-8.9"/>
	<path class="st0" d="M66.3,31.8"/>
	<path class="st0" d="M70.5,59.6c0,6.9-4.9,12.4-11,12.4c-6.1,0-11-5.6-11-12.4c0-6.9,4.9-12.4,11-12.4
		C65.6,47.1,70.5,52.7,70.5,59.6z"/>
</g>
</svg>
