<?xml version="1.0" encoding="utf-8"?>
<!-- Generator: Adobe Illustrator 24.2.0, SVG Export Plug-In . SVG Version: 6.00 Build 0)  -->
<svg version="1.1" id="Layer_1" xmlns="http://www.w3.org/2000/svg" xmlns:xlink="http://www.w3.org/1999/xlink" x="0px" y="0px"
	 viewBox="0 0 50.4 50.4" style="enable-background:new 0 0 50.4 50.4;" xml:space="preserve">
<style type="text/css">
	.st0{fill:#128482;}
</style>
<g>
	<path class="st0" d="M22.7,29.8c0.4,0,0.7-0.2,1-0.1c0.5,0.2,0.6,0.6,0.5,1.3c-0.4,2.1-0.8,4.3-1.2,6.4c-0.1,0.7,0,1.4,0,2.3
		c0.2-0.3,0.3-0.4,0.4-0.6c1.6-4.7,3.2-9.3,4.7-14.1c0.5-1.6,0.4-1.7,1.7-1.8c0.4,0,0.7,0,1.1,0c0.4,0.1,0.5,0.3,0.4,0.9
		c-0.2,1-0.4,2-0.5,3c-0.1,1.6,0.2,3.1,0.9,4.5c0.1-0.2,0.2-0.4,0.3-0.5c0.8-2,1.7-4,2.4-6.1c0.3-0.8,0.5-1.7,0.6-2.6
		c0.1-0.8,0.4-1.2,1-1.3c0.5,0,1-0.1,1.5-0.1c0.5,0,0.7,0.4,0.5,1c-0.4,1.7-0.7,3.4-0.3,5.2c0.2,1,0.6,1.9,0.9,2.8
		c0,0.1,0.4,0.1,0.6,0c1.5-0.8,3-1.2,4.5-1.1c2,0.1,3.8,0.9,5.2,2.9c1,1.4,1.5,3.2,1.3,5.2c-0.2,1.6-1,2.6-2,3.2
		c-0.1,0.1-0.3,0.1-0.5,0.1c0-0.1,0-0.1-0.1-0.2c0.1-0.2,0.3-0.3,0.4-0.5c1.5-1.5,1.7-3.4,0.7-5.4c-0.9-1.7-2.1-2.5-3.6-2.9
		c-1.8-0.5-3.6-0.5-5.4,0.3c-0.4,0.2-0.6,0.4-0.4,1c0.8,2.8-0.1,4.7-2.1,6.4C37,39.5,36.5,39.7,36,40c-0.6,0.3-1.1,0.5-1.7-0.1
		c-0.5-0.6-0.4-1.5-0.3-2.3c0.3-2,1.3-3.5,2.4-4.8c0.4-0.5,0.4-0.8,0.2-1.4c-0.5-1.5-0.8-3-1.3-4.6c-0.1,0.1-0.2,0.3-0.3,0.5
		c-0.9,1.9-1.7,3.9-2.5,5.8c-0.1,0.3-0.2,0.7-0.1,1.1c0.2,1.1,0.5,2.2,0.3,3.4c-0.2,1.3-0.6,2.3-1.4,3c-1.2,1.1-2.5,1.8-4,1.7
		c-0.9-0.1-1.2-0.8-0.7-1.8c0.8-1.4,1.6-2.9,2.5-4.2c0.8-1.2,1-2.2,0.4-3.6c-0.5-1.2-0.7-2.6-1-4c-0.1,0.2-0.2,0.4-0.3,0.7
		c-1.4,3.9-2.8,7.8-4.2,11.6c-0.3,0.7-0.8,1.4-1.2,1.9c-0.7,0.7-1.5,0.5-1.7-0.6c-0.2-1-0.2-2.1-0.3-3.1c0-0.4,0-0.7-0.1-1.1
		c-0.1,0.2-0.1,0.4-0.2,0.5c-0.5,1.3-0.9,2.6-1.4,3.8c-0.1,0.4-0.3,0.8-0.6,1.1c-0.7,1-1.9,0.9-2.5-0.1c-0.8-1.4-1.2-3-1.3-4.7
		c-0.1-1.8,0.1-3.5,0.5-5.2c0-0.2,0.1-0.4,0.2-0.8c-0.7,0.5-1.3,0.9-1.8,1.3c-0.4,0.3-0.9,0.5-1,0.9c-0.1,0.4,0.2,1,0.3,1.5
		c1.1,6.2-1.5,12.3-6.1,13.7c-1,0.3-2,0.2-3,0c-1.1-0.2-1.9-1.6-2.1-3.2c-0.3-2.4,0.3-4.5,1.6-6.2c1.6-2.3,3.6-3.8,5.6-5.3
		c0.3-0.2,0.6-0.5,1-0.8c-0.2-0.3-0.4-0.5-0.5-0.6c-1.5-1.5-3.1-3-4.6-4.5c-1.3-1.3-2.6-2.8-3.6-4.7c-1.3-2.5-1.6-5.1-0.6-7.9
		c1.1-3.2,2.9-5.8,5-7.9c3.9-4,8.1-6.8,12.9-8.4c3.1-1,6.3-1.1,9.4,0.5c2,1,3.5,2.8,3.8,5.8c0.3,2.6-0.3,5-1.2,7.1
		c-2,4.5-5,7.1-8.8,8.3c-2.2,0.7-4.5,1.1-6.8,0.3c-0.9-0.3-1.8-0.9-2.4-1.9c-0.2-0.3-0.4-0.5-0.5-0.9c-0.1-0.4-0.1-0.8-0.2-1.1
		c0.2,0.2,0.5,0.3,0.7,0.6c1,1.1,2.1,1.7,3.3,1.6c5,0,9.1-2.4,12.2-7.8c0.8-1.3,1.2-2.9,1.2-4.6c0-1.6-0.5-2.8-1.6-3.5
		C25.9,4,24.1,3.8,22.3,4c-5.7,0.7-10.5,4.1-14.9,8.7c-1.1,1.2-2.1,2.6-2.8,4.3c-1.5,3.4-1.2,6.6,0.8,9.3c1,1.3,2.1,2.4,3.2,3.6
		c0.9,1,1.9,2.1,2.8,3.1c0.2,0.3,0.4,0.3,0.7,0.1c1.5-1.1,2.9-2.1,4.4-3.2c0.2-0.2,0.5-0.5,0.6-0.8c0.8-1.3,1.7-2.3,2.9-3
		c0.2-0.1,0.4-0.2,0.6-0.3c1.3-0.5,2.2,0.4,2.2,2.2C22.7,28.7,22.7,29.3,22.7,29.8z M11.1,36c-0.2,0.1-0.2,0.1-0.3,0.1
		c-1.6,1.3-3.2,2.6-4.6,4.4c-0.8,1-1.3,2.3-1.6,3.7c-0.3,1.9,0.5,3,1.9,2.5c1.2-0.4,2.2-1.2,3.1-2.4C11.2,42,11.8,39.3,11.1,36z
		 M17.2,37.5c0.1,0.7,0.1,1.4,0.3,2.2c0.1,0.3,0.3,0.6,0.4,0.7c0.2,0,0.4-0.2,0.6-0.5c0.2-0.3,0.4-0.7,0.5-1.1
		c0.8-2.6,1.5-5.3,2.2-7.9c0.2-0.6,0.3-1.3,0.3-1.9c0.1-0.7-0.2-1-0.7-0.7c-0.5,0.3-1,0.8-1.3,1.4C18.1,31.9,17.3,34.6,17.2,37.5z
		 M37.6,33.4c-1.1,1.2-1.7,2.7-2,4.4c0,0.1,0.2,0.4,0.3,0.4C37.3,37.8,38.2,35.2,37.6,33.4z M28.3,40.4c1.3,0.2,2.9-2.6,2.5-4
		C30,37.8,29.1,39.1,28.3,40.4z"/>
	<path d="M28.3,40.4c0.9-1.4,1.7-2.7,2.5-4"/>
</g>
</svg>
