<?xml version="1.0" encoding="utf-8"?>
<!-- Generator: Adobe Illustrator 24.2.0, SVG Export Plug-In . SVG Version: 6.00 Build 0)  -->
<svg version="1.1" id="Layer_1" xmlns="http://www.w3.org/2000/svg" xmlns:xlink="http://www.w3.org/1999/xlink" x="0px" y="0px"
	 viewBox="0 0 151.2 151.2" style="enable-background:new 0 0 151.2 151.2;" xml:space="preserve">
<style type="text/css">
	.st0{fill:#128482;}
</style>
<g>
	<path class="st0" d="M34.8,51.1c12-6,24.1-11.8,36-18c3.5-1.8,6-1.9,9.6,0c11.8,6.2,23.9,12,36.4,18.2c-8,4.2-15.6,8.1-23.1,12.1
		c-5.3,2.8-10.5,5.6-15.9,8.2c-1,0.5-2.8,0.8-3.7,0.4c-12.9-6.6-25.8-13.4-38.6-20.1C35.2,51.7,35.1,51.5,34.8,51.1z"/>
	<path class="st0" d="M120,57c0,9.9,0.1,19.1,0,28.2c0,4.1,1.1,9-0.9,12.1c-2,3-7.3,4.2-11.2,6.1c-9.3,4.7-18.6,9.3-28.4,14.1
		c-0.1-1.1-0.3-1.8-0.3-2.6c0-11.3-0.1-22.5,0.1-33.8c0-1.3,0.7-3.1,1.8-3.7C93.7,70.7,106.5,64.1,120,57z"/>
	<path class="st0" d="M31.5,57.3c6.8,3.5,13.5,7,20.2,10.5c5.8,3,11.7,6,17.5,9.2c1.1,0.6,2.6,1.9,2.6,2.9
		c0.2,12.4,0.1,24.8,0.1,37.8c-5.2-2.6-10-4.9-14.7-7.3c-7.8-3.9-15.6-7.7-23.3-11.7c-1.3-0.7-2.7-2.3-2.7-3.5
		C31,82.9,31,70.8,31.1,58.6C31.1,58.3,31.2,58,31.5,57.3z"/>
	<path class="st0" d="M0,40.8c7.8,4.1,15,7.8,22.2,11.7c0.8,0.5,1.4,1.9,1.4,2.9c0.1,14.1,0.1,28.3,0,42.4c0,0.9-0.4,2.3-1.2,2.7
		c-7.3,3.9-14.6,7.7-22.4,11.7C0,88.3,0,64.9,0,40.8z"/>
	<path class="st0" d="M151.2,40.8c0,24.1,0,47.4,0,71.3c-2.5-1.2-4.7-2.3-6.8-3.4c-4.8-2.5-9.8-4.9-14.5-7.6
		c-1.2-0.7-2.4-2.4-2.4-3.7c-0.2-13.9-0.1-27.8,0-41.7c0-1.1,0.6-2.7,1.5-3.2C136.1,48.6,143.3,44.9,151.2,40.8z"/>
	<path class="st0" d="M3.3,35.1C26.3,23.3,48.7,11.9,71.9,0c0,6.3-0.5,11.9,0.1,17.4c0.7,5.9-1.6,9-7.4,11.7
		c-12,5.3-23.4,11.5-35.2,17.2c-1.1,0.5-3,0.7-4.1,0.2C18.2,43,11.2,39.2,3.3,35.1z"/>
	<path class="st0" d="M79.2,0c23.1,11.8,45.5,23.3,68.6,35.1c-8,4.2-15.4,8.1-22.9,11.8c-0.7,0.4-2.2-0.1-3.1-0.5
		c-13.4-6.6-26.8-13.2-40.1-19.9c-1.1-0.5-2.4-1.8-2.4-2.7C79.1,16.1,79.2,8.5,79.2,0z"/>
	<path class="st0" d="M146.1,117c-22.4,11.5-44.2,22.6-66.5,34c-0.2-1.2-0.4-1.9-0.4-2.7c0-6.9-0.1-13.8,0.1-20.7
		c0-1.3,1.1-3.1,2.3-3.8c12.3-6.3,24.6-12.4,37-18.5c1.1-0.5,2.9-0.9,3.9-0.5C130.3,108.7,137.9,112.8,146.1,117z"/>
	<path class="st0" d="M71.8,151.2C49.3,139.7,27.5,128.5,5,117c8.2-4.3,15.9-8.4,23.7-12.3c0.7-0.4,2.2,0,3.1,0.5
		c12.6,6.2,25.2,12.4,37.7,18.8c1,0.5,2.1,1.9,2.1,2.8C71.9,134.6,71.8,142.4,71.8,151.2z"/>
</g>
</svg>
